<svg width="30" height="30" viewBox="0 0 30 30" fill="none" xmlns="http://www.w3.org/2000/svg">
<path d="M27.5 14.9971C27.5 8.09332 21.9038 2.49707 15 2.49707C8.09626 2.49707 2.50001 8.09332 2.50001 14.9971C2.49728 17.0221 2.98856 19.0173 3.93126 20.8096L2.53626 26.1708C2.48986 26.3499 2.49104 26.538 2.53966 26.7165C2.58829 26.895 2.68269 27.0578 2.81351 27.1886C2.94433 27.3194 3.10704 27.4138 3.28555 27.4624C3.46405 27.511 3.65216 27.5122 3.83126 27.4658L9.19376 26.0696C10.9845 27.01 12.9774 27.5 15 27.4971C21.9038 27.4971 27.5 21.9008 27.5 14.9971ZM15 8.12457C15.2487 8.12457 15.4871 8.22334 15.6629 8.39916C15.8387 8.57497 15.9375 8.81343 15.9375 9.06207V16.8746C15.9375 17.1232 15.8387 17.3617 15.6629 17.5375C15.4871 17.7133 15.2487 17.8121 15 17.8121C14.7514 17.8121 14.5129 17.7133 14.3371 17.5375C14.1613 17.3617 14.0625 17.1232 14.0625 16.8746V9.06207C14.0625 8.81343 14.1613 8.57497 14.3371 8.39916C14.5129 8.22334 14.7514 8.12457 15 8.12457ZM16.25 20.6208C16.25 20.9523 16.1183 21.2703 15.8839 21.5047C15.6495 21.7391 15.3315 21.8708 15 21.8708C14.6685 21.8708 14.3505 21.7391 14.1161 21.5047C13.8817 21.2703 13.75 20.9523 13.75 20.6208C13.75 20.2893 13.8817 19.9714 14.1161 19.7369C14.3505 19.5025 14.6685 19.3708 15 19.3708C15.3315 19.3708 15.6495 19.5025 15.8839 19.7369C16.1183 19.9714 16.25 20.2893 16.25 20.6208Z" fill="#F5C257"/>
</svg>
