<svg width="60" height="55" viewBox="0 0 60 55" fill="none" xmlns="http://www.w3.org/2000/svg">
<g clip-path="url(#clip0_1_2076)">
<path d="M59.9172 36.0598C59.6914 33.2471 58.7641 30.5387 57.2222 28.1892C54.1743 23.5781 49.9243 20.911 44.4652 20.3524C42.3344 20.1097 40.1772 20.2953 38.1172 20.8986C36.0571 21.5018 34.1346 22.511 32.4595 23.8682C28.0021 27.3792 25.7626 32.0677 25.7435 37.7839C25.7189 41.4383 26.8935 44.9973 29.0824 47.9008C32.1185 52.0114 36.1871 54.369 41.2193 54.913C44.5221 55.2868 47.8585 54.6269 50.7805 53.0221C55.0615 50.6984 57.9353 47.1754 59.3019 42.4337C59.6405 41.2489 59.7789 40.0157 60.0173 38.7849V36.4104C59.9744 36.2966 59.9409 36.1793 59.9172 36.0598ZM47.01 37.6049C46.3288 38.4796 45.3363 39.0483 44.2458 39.1887C44.0086 39.22 43.7696 39.2353 43.5303 39.2347C42.6098 39.2347 41.6892 39.2347 40.7686 39.2347H40.5921V40.1849H43.2155V42.3152H40.5921V44.755H38.4767V42.3297H37.7827V40.1922H38.4671V39.2371H37.7827V37.0971H38.4743V30.496H38.6365C40.2837 30.496 41.9324 30.496 43.5828 30.496C44.2292 30.4809 44.8705 30.6153 45.4581 30.8889C46.0457 31.1624 46.5642 31.568 46.9742 32.0749C47.6119 32.8491 47.9646 33.8239 47.972 34.8326C47.9794 35.8412 47.6411 36.8212 47.0147 37.6049H47.01Z" fill="#2B334F"/>
<path d="M43.7492 32.6432C42.7189 32.6287 41.6886 32.6432 40.6488 32.6432C40.6262 32.6451 40.6039 32.6491 40.582 32.6553V37.0947H40.6536C41.6505 37.0947 42.6498 37.0947 43.6467 37.0947C43.9348 37.1009 44.2213 37.0495 44.4899 36.9434C44.7584 36.8373 45.0037 36.6787 45.2118 36.4765C45.4198 36.2743 45.5866 36.0325 45.7025 35.765C45.8184 35.4975 45.8812 35.2094 45.8873 34.9173C45.8934 34.6252 45.8427 34.3347 45.7381 34.0624C45.6335 33.7901 45.477 33.5414 45.2775 33.3305C45.0781 33.1195 44.8397 32.9505 44.5758 32.833C44.3119 32.7154 44.0278 32.6518 43.7397 32.6456L43.7492 32.6432Z" fill="#2B334F"/>
<path d="M19.7812 17.3541C15.2045 17.3057 10.48 16.6287 6.00348 14.6652C4.42849 14.0088 2.97642 13.0829 1.71061 11.928C-0.519299 9.82438 -0.507374 7.48617 1.73684 5.39943C3.37052 3.86883 5.29277 2.88228 7.33665 2.12786C12.5 0.220056 17.8446 -0.275635 23.2918 0.133008C26.9908 0.408661 30.5825 1.16066 33.9977 2.65983C35.5889 3.32204 37.0544 4.25967 38.3288 5.43086C40.5372 7.53211 40.5253 9.83405 38.3002 11.928C36.6546 13.478 34.6894 14.467 32.6097 15.2431C28.5553 16.7616 24.3388 17.3226 19.7812 17.3541Z" fill="#2B334F"/>
<path d="M0.0238348 18.007C7.87024 22.7704 16.3415 23.5974 25.1729 22.8986C25.1017 23.0303 25.022 23.1571 24.9344 23.2782C23.7013 24.8626 22.6722 26.5998 21.8722 28.4479C21.8186 28.5598 21.7411 28.6581 21.6454 28.7359C21.5497 28.8137 21.4382 28.869 21.3188 28.8977C16.5037 29.0403 11.7791 28.4818 7.24778 26.7674C5.30406 26.042 3.46528 25.0941 1.896 23.6724C0.641531 22.5311 -0.124031 21.1891 0.0190649 19.4118C0.0548388 18.9645 0.0238348 18.5123 0.0238348 18.007Z" fill="#2B334F"/>
<path d="M0.0243014 41.2174C1.2907 41.8775 2.47601 42.5594 3.7114 43.1252C6.91705 44.5884 10.3351 45.516 13.833 45.8721C16.2919 46.1308 18.777 46.1477 21.2478 46.2904C21.3452 46.2921 21.4411 46.3145 21.5294 46.3561C21.6178 46.3978 21.6965 46.4578 21.7605 46.5322C22.7145 48.2852 23.6494 50.0552 24.6224 51.8856C23.2654 51.9509 21.8178 52.0597 20.3701 52.0815C15.9795 52.1371 11.6866 51.5544 7.55352 50.0528C5.50725 49.2935 3.57784 48.3336 1.90839 46.8538C0.625303 45.7028 -0.142644 44.3366 0.000452098 42.5376C0.0553054 42.1072 0.0243014 41.6696 0.0243014 41.2174Z" fill="#2B334F"/>
<path d="M20.0963 34.7468V40.4363C19.2448 40.4363 18.3696 40.4798 17.5015 40.4363C13.521 40.1945 9.6455 39.4691 5.9751 37.8225C4.25079 37.056 2.6362 36.1081 1.33164 34.679C0.425371 33.6949 -0.0635395 32.556 0.019933 31.1923C0.0509371 30.6821 0.019933 30.1695 0.019933 29.5674C6.21359 33.4676 13.0273 34.6259 20.0963 34.7468Z" fill="#2B334F"/>
</g>
<defs>
<clipPath id="clip0_1_2076">
<rect width="60" height="55" fill="white"/>
</clipPath>
</defs>
</svg>
