<svg width="52" height="52" viewBox="0 0 52 52" fill="none" xmlns="http://www.w3.org/2000/svg">
<circle cx="26" cy="26" r="26" fill="#2B334F"/>
<path d="M37.4438 26.8295C37.3969 27.0867 37.3958 27.3175 37.3132 27.5121C36.3864 29.6887 35.4464 31.8576 34.5136 34.0335C34.4569 34.1658 34.395 34.2238 34.2407 34.2223C33.3649 34.2123 32.4892 34.2173 31.613 34.2173H31.4141V17.0193H33.8022V17.25C33.8022 18.5765 33.8022 19.903 33.8022 21.2295C33.8022 22.3639 34.5703 23.1469 35.6791 23.1488C36.0485 23.1488 36.4175 23.1515 36.7865 23.1488C37.8061 23.1403 38.5932 22.3412 38.5985 21.2952C38.6053 19.9492 38.5985 18.6033 38.5985 17.2573V17.0335C39.8474 16.8524 40.6909 17.418 40.9461 18.4387C40.984 18.6071 41.0016 18.7797 40.9983 18.9525C41.0008 23.3877 41.0008 27.823 40.9983 32.2583C40.9983 33.4355 40.2284 34.2196 39.076 34.2196C38.0377 34.2196 36.9991 34.2196 35.9603 34.2196H35.7508C35.7824 34.1358 35.8049 34.0658 35.8338 33.9985C36.7192 31.9429 37.6037 29.8869 38.4874 27.8305C38.5515 27.6717 38.5868 27.5023 38.5917 27.3305C38.6071 26.9725 38.6011 26.6129 38.5947 26.2538C38.588 25.8692 38.3421 25.6135 37.9663 25.6123C36.615 25.6085 35.2636 25.6123 33.9122 25.6123C33.8822 25.6123 33.8518 25.6177 33.8097 25.6215V26.8295H37.4438Z" fill="white"/>
<path d="M20.5839 34.2169H20.365C17.882 34.2169 15.399 34.2169 12.9159 34.2169C11.765 34.2169 11.0015 33.4347 11.0015 32.2526C11.0005 27.8253 11 23.3978 11 18.9702C11 17.983 11.5484 17.2477 12.4317 17.0505C12.5664 17.0221 12.7037 17.0083 12.8412 17.0093C15.3616 17.007 17.882 17.0065 20.4026 17.0078H20.5839V34.2169ZM18.1979 25.6208C18.1979 24.3971 18.1998 23.1738 18.1979 21.9502C18.1957 20.9522 17.5024 20.1635 16.532 20.0935C16.0393 20.0566 15.5446 20.0566 15.0519 20.0935C14.6023 20.1235 14.1809 20.3287 13.8742 20.6668C13.5675 21.005 13.3987 21.4505 13.4024 21.9121C13.3937 24.3784 13.3937 26.8446 13.4024 29.3107C13.4054 30.2252 14.0327 30.9824 14.9212 31.1066C15.3882 31.172 15.8691 31.1393 16.3439 31.1397C17.4194 31.1397 18.1957 30.339 18.1964 29.2334C18.1979 28.0292 18.1984 26.825 18.1979 25.6208Z" fill="white"/>
<path d="M21.8035 34.2027V17.0239H30.1925V34.2027H21.8035ZM28.3997 25.6174C28.3997 24.3868 28.4038 23.1562 28.3997 21.9256C28.394 20.9611 27.7048 20.1731 26.7664 20.0989C26.249 20.0581 25.7292 20.059 25.2119 20.1016C24.7765 20.1398 24.3706 20.3431 24.0735 20.6715C23.7765 21 23.6097 21.4301 23.6057 21.8779C23.5959 24.3693 23.5959 26.861 23.6057 29.353C23.6091 30.2129 24.2438 30.9778 25.0715 31.0974C25.5445 31.1654 26.0314 31.1385 26.5123 31.1397C27.6286 31.1431 28.3993 30.3533 28.4008 29.2107C28.4016 28.0129 28.4012 26.8151 28.3997 25.6174Z" fill="white"/>
<path d="M35.0042 17.0217H37.4036V17.2432C37.4036 18.5559 37.4036 19.8683 37.4036 21.1804C37.4036 21.693 37.1821 21.9218 36.6866 21.9226C36.3431 21.9226 35.9993 21.9249 35.6558 21.9226C35.2391 21.9191 35.0045 21.6784 35.0045 21.2558C35.0045 19.9047 35.0045 18.5538 35.0045 17.2032L35.0042 17.0217Z" fill="white"/>
<path d="M16.9992 25.6204C16.9992 26.8057 16.9992 27.9909 16.9992 29.1761C16.9992 29.6903 16.7815 29.9125 16.2804 29.9133C15.9302 29.9133 15.5799 29.916 15.2293 29.9133C14.8693 29.9095 14.6287 29.678 14.6009 29.313C14.5972 29.2684 14.5983 29.223 14.5983 29.1784C14.5983 26.8018 14.5983 24.4251 14.5983 22.0482C14.5983 21.5418 14.828 21.3083 15.322 21.3072C15.6599 21.3072 15.9977 21.3049 16.3356 21.3072C16.759 21.3106 16.9977 21.5545 16.9985 21.9886C17.0005 23.1995 17.0007 24.4101 16.9992 25.6204Z" fill="white"/>
<path d="M27.1992 25.6076C27.1992 26.8125 27.1992 28.0175 27.1992 29.2224C27.1992 29.6693 26.9642 29.912 26.5295 29.9147C26.1665 29.9147 25.8039 29.917 25.4409 29.9147C25.0449 29.9116 24.7994 29.6597 24.799 29.2505C24.7975 26.8285 24.7975 24.4064 24.799 21.9842C24.799 21.565 25.0426 21.3139 25.4521 21.3093C25.8211 21.3047 26.1901 21.3039 26.5591 21.3093C26.9578 21.3155 27.1973 21.5689 27.1973 21.9765C27.199 23.1861 27.1997 24.3964 27.1992 25.6076Z" fill="white"/>
</svg>
