<svg width="24" height="24" viewBox="0 0 24 24" fill="none" xmlns="http://www.w3.org/2000/svg">
<path d="M20.9944 14.6845L21.8967 14.1858L20.8992 12.3806L19.9969 12.8794C19.305 13.2622 18.692 13.7728 18.1903 14.3841L14.0625 12L18.1908 9.61594C18.6924 10.2272 19.3054 10.7378 19.9973 11.1206L20.8997 11.6194L21.8972 9.81422L20.9948 9.31547C20.6325 9.11537 20.3019 8.86261 20.0138 8.56547L22.5 7.12734L21.4688 5.34375L18.9844 6.77719C18.8704 6.37881 18.8164 5.96569 18.8241 5.55141L18.8433 4.52016L16.7808 4.48172L16.7616 5.51297C16.747 6.30288 16.8821 7.08841 17.1595 7.82812L13.0312 10.2136V5.44594C13.8113 5.31692 14.5598 5.04127 15.2372 4.63359L16.1203 4.10156L15.0558 2.33484L14.1727 2.86687C13.8177 3.08033 13.433 3.24003 13.0312 3.34078V0.75H10.9688V3.34078C10.567 3.24003 10.1823 3.08033 9.82734 2.86687L8.94422 2.33484L7.87969 4.10156L8.76281 4.63359C9.44022 5.04127 10.1887 5.31692 10.9688 5.44594V10.2136L6.84047 7.82812C7.11882 7.08795 7.25449 6.30175 7.24031 5.51109L7.22109 4.47984L5.15859 4.51828L5.17781 5.54953C5.1855 5.96382 5.13147 6.37694 5.0175 6.77531L2.53125 5.34375L1.5 7.12969L3.98672 8.56594C3.69858 8.86308 3.36795 9.11584 3.00563 9.31594L2.10328 9.81422L3.10078 11.6194L4.00313 11.1206C4.69502 10.7378 5.30804 10.2272 5.80969 9.61594L9.9375 12L5.80922 14.3841C5.30757 13.7728 4.69455 13.2622 4.00266 12.8794L3.10078 12.3806L2.10328 14.1858L3.00563 14.6845C3.36795 14.8846 3.69858 15.1374 3.98672 15.4345L1.5 16.875L2.53125 18.6609L5.01797 17.2252C5.13194 17.6235 5.18597 18.0367 5.17828 18.4509L5.15906 19.4822L7.22156 19.5206L7.24078 18.4894C7.25487 17.6985 7.11904 16.9122 6.84047 16.1719L10.9688 13.7864V18.5541C10.1887 18.6831 9.44022 18.9587 8.76281 19.3664L7.87969 19.8984L8.94422 21.6652L9.82734 21.1331C10.1823 20.9197 10.567 20.76 10.9688 20.6592V23.25H13.0312V20.6592C13.433 20.76 13.8177 20.9197 14.1727 21.1331L15.0558 21.6652L16.1203 19.8984L15.2372 19.3664C14.5598 18.9587 13.8113 18.6831 13.0312 18.5541V13.7864L17.1595 16.1719C16.8812 16.9121 16.7455 17.6982 16.7597 18.4889L16.7789 19.5202L18.8414 19.4817L18.8222 18.4505C18.8149 18.0355 18.8696 17.6217 18.9844 17.2228L21.4688 18.6586L22.5 16.875L20.0156 15.4364C20.3029 15.1388 20.6328 14.8854 20.9944 14.6845Z" fill="#7CC0FF"/>
</svg>
