<svg width="40" height="40" viewBox="0 0 40 40" fill="none" xmlns="http://www.w3.org/2000/svg">
<circle cx="20" cy="20" r="20" fill="#2B334F"/>
<path d="M21.54 26C21.0667 26.0006 20.6076 25.8381 20.24 25.54L15.14 21.33C14.94 21.1708 14.7785 20.9685 14.6675 20.7383C14.5565 20.508 14.4988 20.2556 14.4988 20C14.4988 19.7444 14.5565 19.492 14.6675 19.2618C14.7785 19.0315 14.94 18.8292 15.14 18.67L20.24 14.46C20.5471 14.214 20.917 14.0592 21.3078 14.0132C21.6985 13.9673 22.0943 14.032 22.45 14.2C22.7592 14.3363 23.0226 14.5587 23.2088 14.8406C23.395 15.1226 23.4961 15.4522 23.5 15.79V24.21C23.4961 24.5479 23.395 24.8774 23.2088 25.1594C23.0226 25.4413 22.7592 25.6637 22.45 25.8C22.1642 25.93 21.8541 25.9982 21.54 26Z" fill="white"/>
</svg>
