<svg width="40" height="40" viewBox="0 0 40 40" fill="none" xmlns="http://www.w3.org/2000/svg">
<circle cx="20" cy="20" r="20" fill="#2B334F"/>
<path d="M18.46 26C18.146 25.9982 17.8359 25.93 17.55 25.8C17.2408 25.6637 16.9774 25.4413 16.7912 25.1594C16.605 24.8774 16.5039 24.5479 16.5 24.21V15.79C16.5039 15.4522 16.605 15.1226 16.7912 14.8406C16.9774 14.5587 17.2408 14.3363 17.55 14.2C17.9057 14.032 18.3015 13.9673 18.6923 14.0132C19.083 14.0592 19.453 14.214 19.76 14.46L24.86 18.67C25.06 18.8292 25.2215 19.0315 25.3325 19.2618C25.4435 19.492 25.5012 19.7444 25.5012 20C25.5012 20.2556 25.4435 20.508 25.3325 20.7383C25.2215 20.9685 25.06 21.1708 24.86 21.33L19.76 25.54C19.3924 25.8381 18.9333 26.0006 18.46 26Z" fill="white"/>
</svg>
