<svg width="52" height="52" viewBox="0 0 52 52" fill="none" xmlns="http://www.w3.org/2000/svg">
<circle cx="26" cy="26" r="26" fill="#2B334F"/>
<g clip-path="url(#clip0_1_1555)">
<path d="M20.1657 47.2134C20.8732 47.2134 21.4467 37.7159 21.4467 26.0001C21.4467 14.2844 20.8732 4.78687 20.1657 4.78687C19.4583 4.78687 18.8848 14.2844 18.8848 26.0001C18.8848 37.7159 19.4583 47.2134 20.1657 47.2134Z" fill="white"/>
<path d="M22.8837 41.0001C22.8837 39.1937 22.8801 37.3872 22.8903 35.5813C22.8903 35.4583 22.9561 35.2837 23.0522 35.221C24.7523 34.1077 26.4614 33.0056 28.1694 31.9022C28.2008 31.8817 28.2364 31.8665 28.3022 31.8325C28.3089 31.9497 28.3179 32.0394 28.3185 32.1308C28.3185 33.5761 28.3185 35.0214 28.3185 36.4667C28.3185 38.7952 26.8045 40.5425 24.4376 40.9526C24.4007 40.9641 24.3656 40.9802 24.3331 41.0007L22.8837 41.0001Z" fill="white"/>
<path d="M15.9986 41.0001C15.542 40.8624 15.0576 40.7792 14.6343 40.577C12.9752 39.7854 12.0735 38.4741 12.0222 36.6776C11.9781 35.1372 12.0125 33.5956 12.0125 32.054C12.0125 31.9895 12.0198 31.9245 12.0252 31.8254C12.1358 31.8905 12.2203 31.9362 12.3006 31.9883C13.9389 33.0477 15.5782 34.1061 17.2185 35.1635C17.2955 35.2045 17.3586 35.2663 17.4001 35.3414C17.4416 35.4165 17.4597 35.5017 17.4522 35.5866C17.4444 37.3913 17.448 39.1954 17.448 41.0001H15.9986Z" fill="white"/>
<path d="M24.3328 11C24.5744 11.0586 24.8159 11.1107 25.0575 11.1758C26.9297 11.699 28.2934 13.4023 28.3128 15.2621C28.3128 15.3793 28.256 15.5428 28.1672 15.602C26.4524 16.743 24.7322 17.8758 23.0065 19.0004C22.9676 19.019 22.9272 19.0344 22.8857 19.0467V11H24.3328Z" fill="white"/>
<path d="M17.4475 11V19.0473C17.381 19.0201 17.3162 18.989 17.2536 18.9541C15.5718 17.8502 13.8907 16.7469 12.2101 15.6441C12.0597 15.5439 12.0072 15.4373 12.0096 15.2627C12.0434 13.2266 13.6704 11.4055 15.7728 11.0586C15.8489 11.0431 15.9241 11.0235 15.998 11H17.4475Z" fill="white"/>
<path d="M38.4457 34.2696C36.0208 37.7337 32.7408 39.8782 28.5211 40.6798L28.7373 40.4149C29.6547 39.2888 30.1264 38.0097 30.13 36.5712C30.13 36.0151 30.1397 35.4579 30.1252 34.9024C30.1203 34.7009 30.1898 34.5983 30.371 34.497C33.2971 32.8563 35.0322 30.4136 35.4845 27.1692C36.0202 23.3308 34.0097 19.5257 30.5008 17.6243C30.217 17.4708 30.1143 17.3155 30.1203 16.9997C30.1348 16.2298 30.1367 15.4558 30.072 14.6894C29.9772 13.5626 29.5098 12.5642 28.8038 11.6694C28.7132 11.5552 28.6226 11.4421 28.4746 11.2593C32.7487 12.1476 36.0704 14.2476 38.436 17.7931L35.3493 19.5263C35.6543 20.0378 35.949 20.5329 36.2552 21.0456L39.354 19.313C41.5644 23.7919 41.5348 28.2427 39.3582 32.7438L36.2576 31.0118C35.9556 31.5134 35.6627 32.005 35.3517 32.5282L38.4457 34.2696Z" fill="white"/>
<path d="M22.8833 33.1796V31.0116C22.8833 30.1626 22.8772 29.3124 22.8899 28.4651C22.8899 28.3509 22.9576 28.1915 23.0481 28.1317C24.7569 27.0141 26.4705 25.9036 28.1889 24.8001C28.2234 24.7818 28.2589 24.7654 28.2952 24.7509C28.3042 24.8346 28.3175 24.9055 28.3175 24.9764C28.3175 26.4694 28.3218 27.9647 28.3115 29.4553C28.3115 29.5696 28.2444 29.7302 28.1539 29.7893C26.4451 30.9065 24.7315 32.0167 23.0131 33.1198C22.9711 33.1421 22.9277 33.1621 22.8833 33.1796Z" fill="white"/>
<path d="M22.8833 26.0911V24.1575C22.8833 23.2499 22.8772 22.3411 22.8899 21.4347C22.8899 21.3175 22.957 21.161 23.0475 21.1013C24.7561 19.9833 26.4725 18.8776 28.1877 17.7696C28.2223 17.7508 28.2579 17.734 28.2946 17.7192C28.3036 17.803 28.3175 17.8733 28.3175 17.9442C28.3175 19.4179 28.3218 20.8909 28.3115 22.3645C28.3115 22.4817 28.2457 22.6399 28.1545 22.6991C26.4465 23.8163 24.7331 24.9265 23.0143 26.0296C22.9718 26.0523 22.928 26.0728 22.8833 26.0911Z" fill="white"/>
<path d="M32.1934 30.7634C31.5133 30.3831 30.8798 30.0315 30.2505 29.6723C30.2197 29.6526 30.1936 29.6267 30.1739 29.5964C30.1542 29.5661 30.1414 29.532 30.1363 29.4966C30.1279 28.8573 30.1309 28.218 30.1309 27.5243L33.0679 29.1643C32.7719 29.7069 32.4881 30.2261 32.1934 30.7634Z" fill="white"/>
<path d="M32.1712 21.3074C32.4761 21.8177 32.766 22.3035 33.0771 22.8261L30.1304 24.4767C30.1304 24.056 30.1788 23.6763 30.1196 23.313C30.0109 22.6445 30.2693 22.2525 30.9047 21.9994C31.3365 21.8306 31.7242 21.5576 32.1712 21.3074Z" fill="white"/>
<path d="M33.6099 24.5623C33.804 25.5105 33.7995 26.4869 33.5966 27.4333C33.053 27.1281 32.5331 26.8404 32.0185 26.5457C31.9956 26.5297 31.9765 26.5091 31.9626 26.4854C31.9486 26.4616 31.9401 26.4352 31.9376 26.408C31.9303 26.1345 31.9303 25.8611 31.9376 25.5876C31.9413 25.5605 31.9508 25.5344 31.9656 25.5111C31.9804 25.4878 32 25.4678 32.0233 25.4523C32.5397 25.1587 33.0591 24.8705 33.6099 24.5623Z" fill="white"/>
<path d="M30.1458 19.4646L30.9079 19.9837L30.1458 20.4044V19.4646Z" fill="white"/>
<path d="M30.1567 31.6573L30.9032 32.0722L30.1573 32.5866L30.1567 31.6573Z" fill="white"/>
<path d="M17.4312 33.1802C17.3213 33.1146 17.2367 33.0677 17.1558 33.0155C15.5244 31.9608 13.8923 30.9062 12.2597 29.8515C12.0821 29.7378 12.0054 29.6224 12.0066 29.4085C12.0175 27.8669 12.0126 26.3247 12.0126 24.7427C12.102 24.7866 12.1703 24.8118 12.2301 24.8499C13.903 25.9312 15.5739 27.0151 17.2428 28.1019C17.3394 28.1651 17.4366 28.3087 17.4372 28.4159C17.4499 29.9481 17.4463 31.4804 17.4457 33.0126C17.4475 33.0601 17.439 33.1052 17.4312 33.1802Z" fill="white"/>
<path d="M12.0124 17.6827L13.0155 18.3273C14.4211 19.2363 15.8253 20.1468 17.228 21.0589C17.3222 21.1204 17.4376 21.2411 17.4382 21.3355C17.4515 22.9064 17.4472 24.4773 17.4472 26.0991C17.3337 26.0312 17.2516 25.9861 17.1724 25.9351C15.5327 24.8769 13.8955 23.8128 12.2515 22.7593C12.0704 22.6421 12.0057 22.5214 12.01 22.3116C12.0166 20.7894 12.0124 19.2677 12.0124 17.6827Z" fill="white"/>
</g>
<defs>
<clipPath id="clip0_1_1555">
<rect width="29" height="30" fill="white" transform="translate(12 11)"/>
</clipPath>
</defs>
</svg>
