<svg width="62" height="30" viewBox="0 0 62 30" fill="none" xmlns="http://www.w3.org/2000/svg">
<g clip-path="url(#clip0_1_1670)">
<path d="M61.9999 23.6763C61.859 23.9334 61.6449 24.142 61.3852 24.2751C61.1255 24.4083 60.8322 24.4598 60.5431 24.4232H54.9382C55.0396 23.354 54.9269 22.2752 54.6068 21.2509C54.2867 20.2265 53.7657 19.2774 53.0748 18.46C52.3839 17.6426 51.5371 16.9735 50.5847 16.4924C49.6323 16.0114 48.5938 15.7282 47.5308 15.6597C46.5344 15.5604 45.5283 15.6659 44.5734 15.9697C43.6186 16.2735 42.7347 16.7694 41.9752 17.4273C40.9635 18.2444 40.1695 19.3027 39.6651 20.5068C39.1608 21.7108 38.9618 23.0226 39.0863 24.3236H22.4444C22.5388 23.2571 22.4211 22.1823 22.0981 21.1623C21.7751 20.1422 21.2533 19.1975 20.5633 18.3836C19.8733 17.5696 19.0291 16.9028 18.0801 16.4222C17.1311 15.9416 16.0965 15.657 15.037 15.585C13.8884 15.5272 12.7409 15.7183 11.6717 16.1453C10.6026 16.5723 9.63656 17.2253 8.83875 18.0604C8.04094 18.8955 7.42986 19.8933 7.04665 20.9866C6.66344 22.0798 6.51701 23.2432 6.61721 24.3983H0.938196C0.803952 24.3922 0.672351 24.3586 0.551448 24.2994C0.430544 24.2403 0.322881 24.1569 0.235048 24.0543C0.147215 23.9518 0.0810597 23.8323 0.0406311 23.703C0.000202497 23.5738 -0.013649 23.4377 -7.5643e-05 23.3028C-7.5643e-05 22.058 -7.5643e-05 20.8132 -7.5643e-05 19.5186C0.00670529 19.2933 0.0778893 19.0748 0.204917 18.8893C0.331946 18.7038 0.50941 18.5592 0.715974 18.473C0.811747 18.4246 0.895058 18.3544 0.959333 18.268C1.02361 18.1816 1.06709 18.0813 1.08634 17.975C1.43202 15.4854 1.72832 12.7468 2.04931 10.1078C2.1187 9.2866 2.50338 8.52514 3.12141 7.9857C3.73943 7.44625 4.54193 7.17146 5.35795 7.21986C5.92585 7.21986 6.49375 7.21986 7.06165 7.21986C7.40291 7.20569 7.73112 7.08377 7.99992 6.87132C10.1481 4.9792 12.3456 3.08708 14.395 1.14518C15.1801 0.409552 16.2121 0.000456955 17.2839 -5.31574e-05H31.2592C34.3336 -0.0384189 37.3294 0.980158 39.753 2.88791C42.4197 4.9543 44.9876 7.09538 47.6296 9.18667C47.9598 9.44238 48.3377 9.62863 48.7407 9.73439L58.6172 12.224C59.3576 12.3791 60.0166 12.8008 60.471 13.4102C60.9254 14.0196 61.1442 14.775 61.0863 15.5352V18.2738L61.9258 18.9211L61.9999 23.6763ZM40.5431 7.74268C39.1851 6.72194 37.8765 5.6265 36.4444 4.73024C34.7949 3.77155 32.9156 3.2892 31.0123 3.33605H22.6666L22.2221 3.38584V8.01654L41.9752 9.01239C41.5061 8.51447 41.037 8.09123 40.5431 7.74268ZM18.8641 7.74268V3.38584C18.3529 3.26831 17.8205 3.28194 17.3159 3.42547C16.8112 3.569 16.3502 3.83785 15.9752 4.20742C14.8147 5.30285 13.6542 6.3236 12.3456 7.46883L18.8641 7.74268Z" fill="#2B334F"/>
<path d="M47.0368 29.9999C45.7856 30.0048 44.5611 29.6352 43.5184 28.9379C42.4757 28.2406 41.6616 27.2469 41.1794 26.0828C40.6972 24.9186 40.5685 23.6363 40.8096 22.3984C41.0507 21.1604 41.6508 20.0225 42.5338 19.1286C43.4168 18.2348 44.5431 17.6253 45.7699 17.3774C46.9967 17.1294 48.2689 17.2542 49.4254 17.7358C50.5818 18.2175 51.5705 19.0343 52.2661 20.083C52.9618 21.1316 53.3331 22.3648 53.3331 23.6265C53.3203 25.3085 52.6536 26.9184 51.4763 28.1101C50.299 29.3019 48.705 29.9804 47.0368 29.9999ZM47.0368 25.5435C47.2821 25.5468 47.5256 25.5009 47.7531 25.4085C47.9806 25.3162 48.1877 25.1792 48.3623 25.0054C48.5369 24.8317 48.6755 24.6248 48.7701 24.3966C48.8647 24.1684 48.9134 23.9236 48.9134 23.6762C48.9439 23.4078 48.9177 23.136 48.8367 22.8785C48.7557 22.621 48.6216 22.3836 48.4433 22.182C48.2649 21.9804 48.0463 21.8191 47.8018 21.7087C47.5573 21.5982 47.2924 21.5411 47.0245 21.5411C46.7566 21.5411 46.4917 21.5982 46.2472 21.7087C46.0026 21.8191 45.7841 21.9804 45.6057 22.182C45.4274 22.3836 45.2933 22.621 45.2123 22.8785C45.1312 23.136 45.1051 23.4078 45.1356 23.6762C45.1388 23.9247 45.1906 24.1701 45.2879 24.3985C45.3852 24.6268 45.5261 24.8335 45.7026 25.0069C45.8792 25.1803 46.0879 25.3169 46.3168 25.409C46.5457 25.5011 46.7904 25.5468 47.0368 25.5435Z" fill="#F5C257"/>
<path d="M20.8642 23.5768C20.8788 24.8383 20.5218 26.0757 19.8384 27.1325C19.155 28.1893 18.1759 29.0177 17.0251 29.513C15.8744 30.0083 14.6038 30.1481 13.3742 29.9147C12.1446 29.6812 11.0113 29.0851 10.118 28.2018C9.22464 27.3185 8.61137 26.1878 8.35586 24.9528C8.10035 23.7178 8.21409 22.4341 8.68268 21.2643C9.15126 20.0946 9.95361 19.0913 10.9881 18.3817C12.0226 17.6721 13.2427 17.2879 14.4938 17.278C16.1641 17.2712 17.7697 17.9288 18.9622 19.1079C20.1548 20.2871 20.8382 21.8928 20.8642 23.5768ZM16.4691 23.5768C16.4692 23.066 16.2697 22.5758 15.9138 22.2124C15.558 21.8489 15.0744 21.6414 14.5679 21.6349C14.3173 21.6315 14.0686 21.6788 13.8364 21.774C13.6043 21.8691 13.3933 22.0102 13.2161 22.1889C13.0389 22.3676 12.899 22.5802 12.8046 22.8143C12.7103 23.0484 12.6634 23.2992 12.6667 23.5519C12.6634 23.8013 12.7096 24.0488 12.8028 24.2799C12.8959 24.511 13.034 24.7209 13.2089 24.8973C13.3838 25.0736 13.592 25.2129 13.8212 25.3068C14.0504 25.4007 14.2959 25.4473 14.5432 25.444C15.0254 25.4459 15.4908 25.2654 15.8474 24.9381C16.204 24.6109 16.4259 24.1606 16.4691 23.6763V23.5768Z" fill="#2B334F"/>
</g>
<defs>
<clipPath id="clip0_1_1670">
<rect width="62" height="30" fill="white"/>
</clipPath>
</defs>
</svg>
