<svg width="30" height="30" viewBox="0 0 30 30" fill="none" xmlns="http://www.w3.org/2000/svg">
<path d="M15.0005 2.49902C21.9055 2.49902 27.503 8.09652 27.503 15.0015C27.503 21.9053 21.9055 27.5028 15.0005 27.5028C8.09555 27.5028 2.49805 21.9053 2.49805 15.0015C2.49805 8.09652 8.09555 2.49902 15.0005 2.49902ZM15.0005 16.8728C14.0019 16.8717 13.0132 17.0705 12.0926 17.4576C11.1721 17.8447 10.3383 18.4121 9.64055 19.1265C9.4665 19.3042 9.37017 19.5438 9.37275 19.7925C9.37533 20.0412 9.4766 20.2787 9.6543 20.4528C9.83199 20.6268 10.0715 20.7232 10.3203 20.7206C10.569 20.718 10.8065 20.6167 10.9805 20.439C11.5035 19.9026 12.1287 19.4765 12.8192 19.1858C13.5097 18.8951 14.2514 18.7457 15.0005 18.7465C16.5318 18.7465 17.963 19.359 19.0143 20.4303C19.1894 20.6033 19.4256 20.7006 19.6718 20.7009C19.9181 20.7013 20.1546 20.6048 20.3302 20.4323C20.5059 20.2597 20.6066 20.025 20.6106 19.7788C20.6147 19.5326 20.5217 19.2947 20.3518 19.1165C19.6542 18.405 18.8215 17.84 17.9026 17.4547C16.9836 17.0694 15.997 16.8716 15.0005 16.8728ZM11.2505 10.939C11.0417 10.9331 10.8338 10.9691 10.6392 11.045C10.4445 11.1208 10.267 11.2349 10.1172 11.3805C9.96744 11.5261 9.84837 11.7003 9.76706 11.8928C9.68575 12.0852 9.64386 12.292 9.64386 12.5009C9.64386 12.7098 9.68575 12.9166 9.76706 13.109C9.84837 13.3015 9.96744 13.4757 10.1172 13.6213C10.267 13.7669 10.4445 13.881 10.6392 13.9568C10.8338 14.0327 11.0417 14.0687 11.2505 14.0628C11.6649 14.0628 12.0624 13.8982 12.3554 13.6051C12.6484 13.3121 12.813 12.9147 12.813 12.5003C12.813 12.0859 12.6484 11.6884 12.3554 11.3954C12.0624 11.1024 11.6649 10.9378 11.2505 10.9378V10.939ZM18.7505 10.939C18.5417 10.9331 18.3338 10.9691 18.1392 11.045C17.9445 11.1208 17.767 11.2349 17.6172 11.3805C17.4674 11.5261 17.3484 11.7003 17.2671 11.8928C17.1858 12.0852 17.1439 12.292 17.1439 12.5009C17.1439 12.7098 17.1858 12.9166 17.2671 13.109C17.3484 13.3015 17.4674 13.4757 17.6172 13.6213C17.767 13.7669 17.9445 13.881 18.1392 13.9568C18.3338 14.0327 18.5417 14.0687 18.7505 14.0628C19.1571 14.0513 19.5432 13.8817 19.8267 13.59C20.1102 13.2984 20.2689 12.9076 20.2689 12.5009C20.2689 12.0941 20.1102 11.7034 19.8267 11.4118C19.5432 11.1201 19.1571 10.9505 18.7505 10.939Z" fill="#F5C257"/>
</svg>
