<svg width="60" height="60" viewBox="0 0 60 60" fill="none" xmlns="http://www.w3.org/2000/svg">
<rect width="60" height="60" rx="5.71429" fill="#2B334F"/>
<g clip-path="url(#clip0_1_2737)">
<path d="M26.6365 14.5238C26.6365 15.3455 25.9703 16.0118 25.1485 16.0118C24.3266 16.0118 23.6604 15.3455 23.6604 14.5238C23.6604 13.7018 24.3266 13.0356 25.1485 13.0356C25.9703 13.0356 26.6365 13.7018 26.6365 14.5238Z" fill="white"/>
<path d="M37.0532 10.8035H23.6604C22.4297 10.8035 21.4282 11.805 21.4282 13.0356V21.9642C21.4282 22.0059 21.4386 22.0452 21.4409 22.0869C21.4304 22.1762 21.4349 22.2662 21.4676 22.3511C21.6514 23.3973 22.5621 24.1963 23.6604 24.1963H37.0532C38.2839 24.1963 39.2854 23.1948 39.2854 21.9642V13.0356C39.2854 11.805 38.2839 10.8035 37.0532 10.8035ZM23.6604 12.2916H37.0532C37.4632 12.2916 37.7972 12.6257 37.7972 13.0356V18.9427L33.8836 15.0289C33.3746 14.5199 32.5466 14.5199 32.0384 15.0289L28.4967 18.5706L27.5591 17.6331C27.0503 17.1241 26.2221 17.1241 25.7139 17.6331L22.9164 20.4307V13.0356C22.9164 12.6257 23.2504 12.2916 23.6604 12.2916Z" fill="white"/>
</g>
<path d="M7.77975 31.3621C8.04975 31.1221 8.36308 30.9388 8.71975 30.8121C9.07642 30.6855 9.48142 30.6221 9.93475 30.6221C10.3048 30.6221 10.6364 30.6671 10.9298 30.7571C11.2264 30.8471 11.4781 30.9738 11.6848 31.1371C11.8914 31.3005 12.0498 31.4938 12.1598 31.7171C12.2731 31.9405 12.3298 32.1855 12.3298 32.4521C12.3298 32.8121 12.2398 33.1288 12.0598 33.4021C11.8831 33.6755 11.6331 33.8871 11.3098 34.0371C11.4931 34.1138 11.6598 34.2088 11.8098 34.3221C11.9598 34.4321 12.0881 34.5571 12.1948 34.6971C12.3048 34.8371 12.3881 34.9905 12.4448 35.1571C12.5048 35.3238 12.5348 35.4988 12.5348 35.6821C12.5348 35.9955 12.4764 36.2888 12.3598 36.5621C12.2431 36.8355 12.0731 37.0738 11.8498 37.2771C11.6298 37.4771 11.3581 37.6355 11.0348 37.7521C10.7114 37.8688 10.3431 37.9271 9.92975 37.9271C9.41642 37.9271 8.95475 37.8438 8.54475 37.6771C8.13475 37.5071 7.78308 37.2788 7.48975 36.9921L7.76975 36.5321C7.79642 36.4955 7.82975 36.4655 7.86975 36.4421C7.90975 36.4155 7.95308 36.4021 7.99975 36.4021C8.06975 36.4021 8.15308 36.4405 8.24975 36.5171C8.34642 36.5905 8.46975 36.6721 8.61975 36.7621C8.76975 36.8521 8.95142 36.9355 9.16475 37.0121C9.38142 37.0855 9.64475 37.1221 9.95475 37.1221C10.2181 37.1221 10.4531 37.0905 10.6598 37.0271C10.8698 36.9638 11.0448 36.8721 11.1848 36.7521C11.3281 36.6321 11.4364 36.4855 11.5098 36.3121C11.5864 36.1388 11.6248 35.9438 11.6248 35.7271C11.6248 35.5405 11.5881 35.3688 11.5148 35.2121C11.4448 35.0555 11.3414 34.9221 11.2048 34.8121C11.0681 34.6988 10.9014 34.6121 10.7048 34.5521C10.5081 34.4888 10.2864 34.4571 10.0398 34.4571H9.05975V33.6621H9.99975C10.2031 33.6621 10.3914 33.6371 10.5648 33.5871C10.7414 33.5371 10.8914 33.4638 11.0148 33.3671C11.1414 33.2705 11.2398 33.1521 11.3098 33.0121C11.3831 32.8721 11.4198 32.7121 11.4198 32.5321C11.4198 32.3688 11.3864 32.2188 11.3198 32.0821C11.2531 31.9455 11.1564 31.8288 11.0298 31.7321C10.9031 31.6321 10.7481 31.5555 10.5648 31.5021C10.3814 31.4488 10.1731 31.4221 9.93975 31.4221C9.66975 31.4221 9.43975 31.4505 9.24975 31.5071C9.05975 31.5638 8.89975 31.6271 8.76975 31.6971C8.63975 31.7638 8.53308 31.8255 8.44975 31.8821C8.36975 31.9388 8.29975 31.9671 8.23975 31.9671C8.18642 31.9671 8.14308 31.9555 8.10975 31.9321C8.07642 31.9088 8.04475 31.8705 8.01475 31.8171L7.77975 31.3621ZM16.4036 35.5771C15.9936 35.5905 15.6436 35.6238 15.3536 35.6771C15.0669 35.7271 14.8319 35.7938 14.6486 35.8771C14.4686 35.9605 14.3369 36.0588 14.2536 36.1721C14.1736 36.2855 14.1336 36.4121 14.1336 36.5521C14.1336 36.6855 14.1552 36.8005 14.1986 36.8971C14.2419 36.9938 14.3002 37.0738 14.3736 37.1371C14.4502 37.1971 14.5386 37.2421 14.6386 37.2721C14.7419 37.2988 14.8519 37.3121 14.9686 37.3121C15.1252 37.3121 15.2686 37.2971 15.3986 37.2671C15.5286 37.2338 15.6502 37.1871 15.7636 37.1271C15.8802 37.0671 15.9902 36.9955 16.0936 36.9121C16.2002 36.8288 16.3036 36.7338 16.4036 36.6271V35.5771ZM13.5286 33.5071C13.8086 33.2371 14.1102 33.0355 14.4336 32.9021C14.7569 32.7688 15.1152 32.7021 15.5086 32.7021C15.7919 32.7021 16.0436 32.7488 16.2636 32.8421C16.4836 32.9355 16.6686 33.0655 16.8186 33.2321C16.9686 33.3988 17.0819 33.6005 17.1586 33.8371C17.2352 34.0738 17.2736 34.3338 17.2736 34.6171V37.8571H16.8786C16.7919 37.8571 16.7252 37.8438 16.6786 37.8171C16.6319 37.7871 16.5952 37.7305 16.5686 37.6471L16.4686 37.1671C16.3352 37.2905 16.2052 37.4005 16.0786 37.4971C15.9519 37.5905 15.8186 37.6705 15.6786 37.7371C15.5386 37.8005 15.3886 37.8488 15.2286 37.8821C15.0719 37.9188 14.8969 37.9371 14.7036 37.9371C14.5069 37.9371 14.3219 37.9105 14.1486 37.8571C13.9752 37.8005 13.8236 37.7171 13.6936 37.6071C13.5669 37.4971 13.4652 37.3588 13.3886 37.1921C13.3152 37.0221 13.2786 36.8221 13.2786 36.5921C13.2786 36.3921 13.3336 36.2005 13.4436 36.0171C13.5536 35.8305 13.7319 35.6655 13.9786 35.5221C14.2252 35.3788 14.5469 35.2621 14.9436 35.1721C15.3402 35.0788 15.8269 35.0255 16.4036 35.0121V34.6171C16.4036 34.2238 16.3186 33.9271 16.1486 33.7271C15.9786 33.5238 15.7302 33.4221 15.4036 33.4221C15.1836 33.4221 14.9986 33.4505 14.8486 33.5071C14.7019 33.5605 14.5736 33.6221 14.4636 33.6921C14.3569 33.7588 14.2636 33.8205 14.1836 33.8771C14.1069 33.9305 14.0302 33.9571 13.9536 33.9571C13.8936 33.9571 13.8419 33.9421 13.7986 33.9121C13.7552 33.8788 13.7186 33.8388 13.6886 33.7921L13.5286 33.5071ZM21.9143 33.4721H19.5243V37.8571H18.6293V32.7921H21.9143V33.4721ZM23.6551 36.6371C23.8185 36.8571 23.9968 37.0121 24.1901 37.1021C24.3835 37.1921 24.6001 37.2371 24.8401 37.2371C25.3135 37.2371 25.6768 37.0688 25.9301 36.7321C26.1835 36.3955 26.3101 35.9155 26.3101 35.2921C26.3101 34.9621 26.2801 34.6788 26.2201 34.4421C26.1635 34.2055 26.0801 34.0121 25.9701 33.8621C25.8601 33.7088 25.7251 33.5971 25.5651 33.5271C25.4051 33.4571 25.2235 33.4221 25.0201 33.4221C24.7301 33.4221 24.4751 33.4888 24.2551 33.6221C24.0385 33.7555 23.8385 33.9438 23.6551 34.1871V36.6371ZM23.6101 33.5771C23.8235 33.3138 24.0701 33.1021 24.3501 32.9421C24.6301 32.7821 24.9501 32.7021 25.3101 32.7021C25.6035 32.7021 25.8685 32.7588 26.1051 32.8721C26.3418 32.9821 26.5435 33.1471 26.7101 33.3671C26.8768 33.5838 27.0051 33.8538 27.0951 34.1771C27.1851 34.5005 27.2301 34.8721 27.2301 35.2921C27.2301 35.6655 27.1801 36.0138 27.0801 36.3371C26.9801 36.6571 26.8351 36.9355 26.6451 37.1721C26.4585 37.4055 26.2285 37.5905 25.9551 37.7271C25.6851 37.8605 25.3801 37.9271 25.0401 37.9271C24.7301 37.9271 24.4635 37.8755 24.2401 37.7721C24.0201 37.6655 23.8251 37.5188 23.6551 37.3321V39.5721H22.7601V32.7921H23.2951C23.4218 32.7921 23.5001 32.8538 23.5301 32.9771L23.6101 33.5771ZM32.5891 32.7921L29.7641 39.3521C29.7341 39.4188 29.6958 39.4721 29.6491 39.5121C29.6058 39.5521 29.5375 39.5721 29.4441 39.5721H28.7841L29.7091 37.5621L27.6191 32.7921H28.3891C28.4658 32.7921 28.5258 32.8121 28.5691 32.8521C28.6158 32.8888 28.6475 32.9305 28.6641 32.9771L30.0191 36.1671C30.0725 36.3071 30.1175 36.4538 30.1541 36.6071C30.2008 36.4505 30.2508 36.3021 30.3041 36.1621L31.6191 32.9771C31.6391 32.9238 31.6725 32.8805 31.7191 32.8471C31.7691 32.8105 31.8241 32.7921 31.8841 32.7921H32.5891ZM33.0163 33.3121C33.2063 33.1321 33.4363 32.9871 33.7063 32.8771C33.9796 32.7671 34.308 32.7121 34.6913 32.7121C34.998 32.7121 35.268 32.7505 35.5013 32.8271C35.7346 32.9005 35.9296 32.9988 36.0863 33.1221C36.2463 33.2455 36.3663 33.3871 36.4463 33.5471C36.5296 33.7038 36.5713 33.8671 36.5713 34.0371C36.5713 34.1371 36.5546 34.2421 36.5213 34.3521C36.4913 34.4621 36.4396 34.5671 36.3663 34.6671C36.293 34.7671 36.198 34.8605 36.0813 34.9471C35.9646 35.0338 35.8196 35.1038 35.6463 35.1571C35.9696 35.2538 36.223 35.4088 36.4063 35.6221C36.593 35.8355 36.6863 36.0971 36.6863 36.4071C36.6863 36.6405 36.633 36.8521 36.5263 37.0421C36.4196 37.2288 36.2763 37.3888 36.0963 37.5221C35.9163 37.6521 35.7063 37.7521 35.4663 37.8221C35.2296 37.8921 34.9813 37.9271 34.7213 37.9271C34.558 37.9271 34.3913 37.9121 34.2213 37.8821C34.0546 37.8521 33.8913 37.8055 33.7313 37.7421C33.5713 37.6755 33.4196 37.5938 33.2763 37.4971C33.1363 37.4005 33.0113 37.2838 32.9013 37.1471L33.1513 36.8221C33.1913 36.7655 33.248 36.7371 33.3213 36.7371C33.3813 36.7371 33.4446 36.7638 33.5113 36.8171C33.5813 36.8671 33.6663 36.9238 33.7663 36.9871C33.8663 37.0505 33.988 37.1088 34.1313 37.1621C34.278 37.2121 34.4563 37.2371 34.6663 37.2371C34.8496 37.2371 35.013 37.2155 35.1563 37.1721C35.303 37.1255 35.4263 37.0621 35.5263 36.9821C35.6263 36.9021 35.703 36.8071 35.7563 36.6971C35.8096 36.5871 35.8363 36.4671 35.8363 36.3371C35.8363 36.0871 35.7313 35.8855 35.5213 35.7321C35.3146 35.5788 34.9996 35.5021 34.5763 35.5021H34.0013V34.9121H34.5763C34.7596 34.9121 34.9246 34.8938 35.0713 34.8571C35.218 34.8171 35.343 34.7638 35.4463 34.6971C35.5496 34.6305 35.628 34.5505 35.6813 34.4571C35.7346 34.3605 35.7613 34.2571 35.7613 34.1471C35.7613 34.0471 35.738 33.9521 35.6913 33.8621C35.648 33.7721 35.5796 33.6938 35.4863 33.6271C35.3963 33.5605 35.283 33.5071 35.1463 33.4671C35.0096 33.4271 34.8496 33.4071 34.6663 33.4071C34.4663 33.4071 34.2963 33.4271 34.1563 33.4671C34.0196 33.5071 33.903 33.5505 33.8063 33.5971C33.713 33.6438 33.6363 33.6871 33.5763 33.7271C33.5163 33.7671 33.4646 33.7871 33.4213 33.7871C33.378 33.7871 33.3413 33.7788 33.3113 33.7621C33.2846 33.7455 33.2546 33.7105 33.2213 33.6571L33.0163 33.3121ZM42.1735 32.7921V37.8571H41.2835V34.4171C41.2835 34.3505 41.2868 34.2788 41.2935 34.2021C41.3002 34.1255 41.3085 34.0488 41.3185 33.9721C41.2885 34.0388 41.2585 34.1005 41.2285 34.1571C41.1985 34.2138 41.1668 34.2655 41.1335 34.3121L38.6885 37.6371C38.6518 37.6905 38.6052 37.7421 38.5485 37.7921C38.4952 37.8388 38.4352 37.8621 38.3685 37.8621H37.8285V32.7971H38.7235V36.2371C38.7235 36.3005 38.7202 36.3705 38.7135 36.4471C38.7068 36.5205 38.6985 36.5955 38.6885 36.6721C38.7185 36.6088 38.7485 36.5505 38.7785 36.4971C38.8085 36.4405 38.8385 36.3888 38.8685 36.3421L41.3135 33.0171C41.3502 32.9638 41.3968 32.9138 41.4535 32.8671C41.5102 32.8171 41.5718 32.7921 41.6385 32.7921H42.1735ZM47.7905 33.4721H45.8455V37.8571H44.9555V33.4721H43.0105V32.7921H47.7905V33.4721ZM50.584 37.2071C50.764 37.2071 50.919 37.1855 51.049 37.1421C51.1824 37.0955 51.2924 37.0321 51.379 36.9521C51.4657 36.8688 51.5307 36.7721 51.574 36.6621C51.6174 36.5521 51.639 36.4321 51.639 36.3021C51.639 36.1821 51.6207 36.0705 51.584 35.9671C51.5474 35.8605 51.4857 35.7671 51.399 35.6871C51.3157 35.6071 51.2057 35.5438 51.069 35.4971C50.9324 35.4505 50.7657 35.4271 50.569 35.4271H49.494V37.2071H50.584ZM50.569 34.7771C50.919 34.7771 51.2124 34.8188 51.449 34.9021C51.689 34.9855 51.8807 35.0971 52.024 35.2371C52.1707 35.3771 52.2757 35.5388 52.339 35.7221C52.4024 35.9055 52.434 36.0955 52.434 36.2921C52.434 36.5188 52.394 36.7288 52.314 36.9221C52.234 37.1121 52.1157 37.2771 51.959 37.4171C51.8024 37.5538 51.609 37.6621 51.379 37.7421C51.149 37.8188 50.884 37.8571 50.584 37.8571H48.639V32.7921H49.494V34.7771H50.569ZM22.396 49.2521C22.6927 49.2388 22.9544 49.1838 23.181 49.0871C23.411 48.9905 23.6027 48.8605 23.756 48.6971C23.9127 48.5305 24.0294 48.3321 24.106 48.1021C24.186 47.8721 24.226 47.6138 24.226 47.3271C24.226 47.0371 24.186 46.7771 24.106 46.5471C24.0294 46.3138 23.9127 46.1138 23.756 45.9471C23.6027 45.7805 23.411 45.6505 23.181 45.5571C22.9544 45.4605 22.691 45.4038 22.391 45.3871V49.2071L22.396 49.2521ZM21.606 45.3871C21.306 45.4038 21.0427 45.4605 20.816 45.5571C20.5894 45.6505 20.3977 45.7805 20.241 45.9471C20.0877 46.1138 19.971 46.3138 19.891 46.5471C19.8144 46.7805 19.776 47.0405 19.776 47.3271C19.776 47.6138 19.8144 47.8721 19.891 48.1021C19.971 48.3321 20.0877 48.5305 20.241 48.6971C20.3944 48.8605 20.5844 48.9905 20.811 49.0871C21.041 49.1838 21.3044 49.2388 21.601 49.2521L21.606 49.2221V45.3871ZM22.421 44.7171C22.8377 44.7338 23.2127 44.8071 23.546 44.9371C23.8794 45.0671 24.1627 45.2455 24.396 45.4721C24.6294 45.6988 24.8077 45.9688 24.931 46.2821C25.0577 46.5921 25.121 46.9388 25.121 47.3221C25.121 47.7055 25.0577 48.0538 24.931 48.3671C24.8077 48.6771 24.6294 48.9455 24.396 49.1721C24.1627 49.3955 23.8794 49.5721 23.546 49.7021C23.2127 49.8321 22.8377 49.9055 22.421 49.9221V51.6021H21.581V49.9221C21.1644 49.9055 20.7894 49.8321 20.456 49.7021C20.1227 49.5721 19.8394 49.3955 19.606 49.1721C19.3727 48.9455 19.1927 48.6771 19.066 48.3671C18.9427 48.0538 18.881 47.7055 18.881 47.3221C18.881 46.9388 18.9427 46.5921 19.066 46.2821C19.1927 45.9688 19.3727 45.6988 19.606 45.4721C19.8394 45.2455 20.1227 45.0671 20.456 44.9371C20.7894 44.8071 21.1644 44.7338 21.581 44.7171V42.6921H22.421V44.7171ZM28.3668 44.7121C28.7368 44.7121 29.0702 44.7738 29.3668 44.8971C29.6635 45.0205 29.9168 45.1955 30.1268 45.4221C30.3368 45.6488 30.4968 45.9238 30.6068 46.2471C30.7202 46.5671 30.7768 46.9255 30.7768 47.3221C30.7768 47.7221 30.7202 48.0821 30.6068 48.4021C30.4968 48.7221 30.3368 48.9955 30.1268 49.2221C29.9168 49.4488 29.6635 49.6238 29.3668 49.7471C29.0702 49.8671 28.7368 49.9271 28.3668 49.9271C27.9935 49.9271 27.6568 49.8671 27.3568 49.7471C27.0602 49.6238 26.8068 49.4488 26.5968 49.2221C26.3868 48.9955 26.2252 48.7221 26.1118 48.4021C26.0018 48.0821 25.9468 47.7221 25.9468 47.3221C25.9468 46.9255 26.0018 46.5671 26.1118 46.2471C26.2252 45.9238 26.3868 45.6488 26.5968 45.4221C26.8068 45.1955 27.0602 45.0205 27.3568 44.8971C27.6568 44.7738 27.9935 44.7121 28.3668 44.7121ZM28.3668 49.2321C28.8668 49.2321 29.2402 49.0655 29.4868 48.7321C29.7335 48.3955 29.8568 47.9271 29.8568 47.3271C29.8568 46.7238 29.7335 46.2538 29.4868 45.9171C29.2402 45.5805 28.8668 45.4121 28.3668 45.4121C28.1135 45.4121 27.8918 45.4555 27.7018 45.5421C27.5152 45.6288 27.3585 45.7538 27.2318 45.9171C27.1085 46.0805 27.0152 46.2821 26.9518 46.5221C26.8918 46.7588 26.8618 47.0271 26.8618 47.3271C26.8618 47.9271 26.9852 48.3955 27.2318 48.7321C27.4818 49.0655 27.8602 49.2321 28.3668 49.2321ZM35.9106 45.4721H33.9656V49.8571H33.0756V45.4721H31.1306V44.7921H35.9106V45.4721ZM38.6891 44.7121C39.0591 44.7121 39.3924 44.7738 39.6891 44.8971C39.9858 45.0205 40.2391 45.1955 40.4491 45.4221C40.6591 45.6488 40.8191 45.9238 40.9291 46.2471C41.0424 46.5671 41.0991 46.9255 41.0991 47.3221C41.0991 47.7221 41.0424 48.0821 40.9291 48.4021C40.8191 48.7221 40.6591 48.9955 40.4491 49.2221C40.2391 49.4488 39.9858 49.6238 39.6891 49.7471C39.3924 49.8671 39.0591 49.9271 38.6891 49.9271C38.3158 49.9271 37.9791 49.8671 37.6791 49.7471C37.3824 49.6238 37.1291 49.4488 36.9191 49.2221C36.7091 48.9955 36.5474 48.7221 36.4341 48.4021C36.3241 48.0821 36.2691 47.7221 36.2691 47.3221C36.2691 46.9255 36.3241 46.5671 36.4341 46.2471C36.5474 45.9238 36.7091 45.6488 36.9191 45.4221C37.1291 45.1955 37.3824 45.0205 37.6791 44.8971C37.9791 44.7738 38.3158 44.7121 38.6891 44.7121ZM38.6891 49.2321C39.1891 49.2321 39.5624 49.0655 39.8091 48.7321C40.0558 48.3955 40.1791 47.9271 40.1791 47.3271C40.1791 46.7238 40.0558 46.2538 39.8091 45.9171C39.5624 45.5805 39.1891 45.4121 38.6891 45.4121C38.4358 45.4121 38.2141 45.4555 38.0241 45.5421C37.8374 45.6288 37.6808 45.7538 37.5541 45.9171C37.4308 46.0805 37.3374 46.2821 37.2741 46.5221C37.2141 46.7588 37.1841 47.0271 37.1841 47.3271C37.1841 47.9271 37.3074 48.3955 37.5541 48.7321C37.8041 49.0655 38.1824 49.2321 38.6891 49.2321Z" fill="white"/>
<defs>
<clipPath id="clip0_1_2737">
<rect width="17.8571" height="17.8571" fill="white" transform="translate(21.4283 8.57144)"/>
</clipPath>
</defs>
</svg>
