<svg width="30" height="30" viewBox="0 0 30 30" fill="none" xmlns="http://www.w3.org/2000/svg">
<path d="M29.2958 10.3125H25.7879L24.8129 7.875C23.8109 5.36894 21.4197 3.75 18.7203 3.75H11.279C8.58018 3.75 6.18841 5.36894 5.18588 7.875L4.21089 10.3125H0.703492C0.245879 10.3125 -0.0898608 10.7426 0.0214664 11.1861L0.373026 12.5924C0.450955 12.9053 0.732203 13.125 1.05505 13.125H2.23102C1.44411 13.8123 0.937279 14.8113 0.937279 15.9375V18.75C0.937279 19.6945 1.29821 20.5471 1.87477 21.2068V24.375C1.87477 25.4104 2.71441 26.25 3.74976 26.25H5.62474C6.66008 26.25 7.49972 25.4104 7.49972 24.375V22.5H22.4996V24.375C22.4996 25.4104 23.3392 26.25 24.3746 26.25H26.2496C27.2849 26.25 28.1246 25.4104 28.1246 24.375V21.2068C28.7011 20.5477 29.062 19.6951 29.062 18.75V15.9375C29.062 14.8113 28.5552 13.8123 27.7689 13.125H28.9449C29.2677 13.125 29.549 12.9053 29.6269 12.5924L29.9784 11.1861C30.0892 10.7426 29.7534 10.3125 29.2958 10.3125ZM8.66749 9.26777C9.09463 8.2002 10.1288 7.5 11.279 7.5H18.7203C19.8705 7.5 20.9047 8.2002 21.3318 9.26777L22.4996 12.1875H7.49972L8.66749 9.26777ZM5.62474 18.7383C4.49975 18.7383 3.74976 17.9906 3.74976 16.8691C3.74976 15.7477 4.49975 15 5.62474 15C6.74973 15 8.43722 16.6822 8.43722 17.8037C8.43722 18.9252 6.74973 18.7383 5.62474 18.7383ZM24.3746 18.7383C23.2496 18.7383 21.5621 18.9252 21.5621 17.8037C21.5621 16.6822 23.2496 15 24.3746 15C25.4996 15 26.2496 15.7477 26.2496 16.8691C26.2496 17.9906 25.4996 18.7383 24.3746 18.7383Z" fill="#F5C257"/>
</svg>
