<svg width="50" height="50" viewBox="0 0 50 50" fill="none" xmlns="http://www.w3.org/2000/svg">
<circle cx="25" cy="25" r="25" fill="#2B334F"/>
<g clip-path="url(#clip0_1_3091)">
<path d="M33.2031 15.625H28.9062V14.8438C28.9062 13.5493 27.8569 12.5 26.5625 12.5H23.4375C22.1431 12.5 21.0938 13.5493 21.0938 14.8438V15.625H16.7969C15.7182 15.625 14.8438 16.4995 14.8438 17.5781V19.1406C14.8438 19.5721 15.1935 19.9219 15.625 19.9219H34.375C34.8065 19.9219 35.1562 19.5721 35.1562 19.1406V17.5781C35.1562 16.4995 34.2818 15.625 33.2031 15.625ZM22.6562 14.8438C22.6562 14.4131 23.0068 14.0625 23.4375 14.0625H26.5625C26.9932 14.0625 27.3438 14.4131 27.3438 14.8438V15.625H22.6562V14.8438Z" fill="white"/>
<path d="M16.327 21.4844C16.1876 21.4844 16.0765 21.6009 16.0832 21.7401L16.7277 35.2676C16.7873 36.5195 17.8156 37.5 19.0685 37.5H30.9328C32.1857 37.5 33.214 36.5195 33.2736 35.2676L33.9181 21.7401C33.9248 21.6009 33.8137 21.4844 33.6743 21.4844H16.327ZM28.1256 23.4375C28.1256 23.0059 28.4753 22.6562 28.9069 22.6562C29.3385 22.6562 29.6881 23.0059 29.6881 23.4375V33.5938C29.6881 34.0254 29.3385 34.375 28.9069 34.375C28.4753 34.375 28.1256 34.0254 28.1256 33.5938V23.4375ZM24.2194 23.4375C24.2194 23.0059 24.569 22.6562 25.0006 22.6562C25.4323 22.6562 25.7819 23.0059 25.7819 23.4375V33.5938C25.7819 34.0254 25.4323 34.375 25.0006 34.375C24.569 34.375 24.2194 34.0254 24.2194 33.5938V23.4375ZM20.3131 23.4375C20.3131 23.0059 20.6628 22.6562 21.0944 22.6562C21.526 22.6562 21.8756 23.0059 21.8756 23.4375V33.5938C21.8756 34.0254 21.526 34.375 21.0944 34.375C20.6628 34.375 20.3131 34.0254 20.3131 33.5938V23.4375Z" fill="white"/>
</g>
<defs>
<clipPath id="clip0_1_3091">
<rect width="25" height="25" fill="white" transform="translate(12.5 12.5)"/>
</clipPath>
</defs>
</svg>
