<svg width="52" height="52" viewBox="0 0 52 52" fill="none" xmlns="http://www.w3.org/2000/svg">
<circle cx="26" cy="26" r="26" fill="#2B334F"/>
<path d="M11 22.4025C11.0579 22.2387 11.1081 22.0714 11.176 21.9125C11.255 21.7273 11.3889 21.5895 11.5824 21.5516C12.1125 21.4479 12.6427 21.3386 13.1768 21.2655C13.4714 21.2254 13.6294 21.373 13.6749 21.6802C13.7264 22.0264 13.7515 22.3768 13.792 22.7592C13.9152 22.7592 14.0534 22.7708 14.188 22.7525C14.2331 22.7462 14.2864 22.6699 14.3058 22.6144C14.5347 21.9614 14.7502 21.3035 14.9849 20.6529C15.3035 19.77 15.6646 18.9082 16.2232 18.1575C16.3236 18.0239 16.4321 17.8985 16.5392 17.7709C17.0372 17.1801 17.6835 16.946 18.4135 16.8462C21.5512 16.4167 24.7007 16.2768 27.8615 16.3611C29.3616 16.4017 30.8572 16.5145 32.3481 16.6996C32.824 16.758 33.2986 16.8314 33.7759 16.8753C34.5604 16.9502 35.1538 17.3649 35.6458 17.9807C36.1499 18.6112 36.5134 19.3286 36.7992 20.0874C37.1038 20.8958 37.3842 21.7175 37.663 22.5378C37.7206 22.7083 37.7892 22.7933 37.9683 22.7582C38.0479 22.7423 38.1333 22.7557 38.216 22.7557C38.2494 22.419 38.2692 22.0992 38.3117 21.7825C38.3706 21.3428 38.5041 21.2202 38.9282 21.2739C39.409 21.3326 39.8864 21.4186 40.3583 21.5316C40.76 21.6293 41.0706 22.1909 40.9845 22.6211C40.937 22.8573 40.7713 23.0253 40.5588 23.1044C40.0327 23.2998 39.4841 23.3585 38.9289 23.343C38.8283 23.3387 38.7306 23.3072 38.645 23.2516C38.4743 23.1392 38.3144 23.1353 38.143 23.2365C38.0768 23.2713 38.0089 23.3022 37.9395 23.3293C37.9871 23.5431 38.1106 23.7298 38.2849 23.8512C38.8589 24.2659 39.4436 24.6659 40.0005 25.1045C40.8232 25.7526 40.6863 25.5614 40.8212 26.6257C41.0602 28.5148 41.0177 30.4117 40.9333 32.3092C40.8999 33.0825 40.8975 33.8557 40.849 34.6264C40.8279 34.96 40.7406 35.2921 40.6549 35.6169C40.5819 35.8935 40.3777 36.008 40.1056 36.0059C39.453 36.001 38.8003 35.9877 38.1483 36.0038C36.8213 36.039 35.4949 36.0938 34.1678 36.1279C33.7116 36.1395 33.2575 36.1166 32.821 35.9237C32.6704 35.8569 32.4813 35.8675 32.3106 35.8717C30.7995 35.9068 29.2887 35.9848 27.7775 35.9866C25.5578 35.9891 23.3385 35.9409 21.1188 35.911C20.5947 35.9037 20.0705 35.8791 19.5457 35.8696C19.4303 35.8696 19.3021 35.8696 19.2003 35.9156C18.6702 36.1641 18.1112 36.1384 17.555 36.124C15.9213 36.0822 14.288 36.0302 12.6544 35.987C12.3984 35.9799 12.1416 35.9989 11.8846 36.0042C11.6352 36.0095 11.4629 35.8942 11.3591 35.6527C11.1918 35.2587 11.1563 34.8387 11.1396 34.4177C11.0977 33.3446 11.0669 32.2734 11.0281 31.2025C11.0241 31.0914 11.0097 30.9828 11 30.8728V28.7991C11.0104 28.6898 11.0211 28.5809 11.0315 28.4716C11.1111 27.6337 11.1907 26.7965 11.2701 25.96C11.2766 25.8722 11.3008 25.7868 11.3412 25.7096C11.3816 25.6324 11.4373 25.5651 11.5044 25.5122C11.6804 25.3688 11.8478 25.2128 12.0295 25.0785C12.5761 24.6733 13.1276 24.2768 13.6776 23.8793C13.8667 23.7426 14.0049 23.5711 14.0608 23.3275C14.0089 23.304 13.9604 23.2868 13.9182 23.2615C13.7174 23.1462 13.5306 23.1254 13.3231 23.266C13.2164 23.3297 13.0936 23.3573 12.9713 23.3451C12.5453 23.305 12.1206 23.2474 11.6965 23.187C11.3749 23.1409 11.1526 22.9409 11 22.6485V22.4025ZM36.0933 22.7891C36.1268 22.7891 36.1603 22.7891 36.1937 22.7891C36.511 22.7891 36.5783 22.7083 36.5435 22.3754C36.5398 22.3403 36.5388 22.3051 36.5321 22.27C36.2506 20.8641 35.7342 19.5693 34.8563 18.451C34.6357 18.1698 34.3911 17.9308 34.0259 17.8784C33.892 17.8594 33.7649 17.812 33.6327 17.7972C32.6356 17.6858 31.6402 17.5375 30.6398 17.4809C29.0534 17.3916 27.4633 17.3143 25.8751 17.3245C24.1029 17.3358 22.3304 17.4356 20.5595 17.5263C19.6737 17.5681 18.7931 17.6923 17.9282 17.8974C17.6596 17.9568 17.4183 18.1105 17.244 18.3332C16.3089 19.5032 15.7309 20.848 15.4628 22.3434C15.4039 22.6721 15.5026 22.7947 15.8189 22.7859C16.2423 22.774 16.6654 22.7339 17.0887 22.7276C19.9946 22.6851 22.9 22.6267 25.8055 22.6151C29.2355 22.6014 32.6654 22.6411 36.0933 22.7891ZM25.997 33.067V33.0287C26.5937 33.0287 27.1908 33.0403 27.7872 33.0262C29.1304 32.9949 30.4742 32.9637 31.8166 32.9064C32.4525 32.8793 32.9529 32.5479 33.295 31.9838C33.5353 31.588 33.4921 31.2025 33.1945 30.8563C32.9964 30.6264 32.7929 30.4025 32.5857 30.1797C32.3537 29.9213 32.0498 29.7466 31.7175 29.6806C31.2744 29.5931 30.8293 29.5151 30.3825 29.4515C29.0732 29.2596 27.7546 29.1473 26.4331 29.1151C24.5146 29.075 22.6145 29.2866 20.7208 29.5815C20.2429 29.656 19.776 29.772 19.4219 30.159C19.198 30.405 18.9701 30.6454 18.7565 30.9002C18.5222 31.1814 18.461 31.517 18.6307 31.8453C18.7526 32.0736 18.9093 32.2793 19.0946 32.4544C19.5206 32.8635 20.0595 32.9306 20.6091 32.9429C22.4059 32.9837 24.2019 33.025 25.997 33.067ZM12.1761 25.7161C12.1527 25.9192 12.1283 26.0742 12.1185 26.2303C12.0898 26.6872 12.0807 27.1441 12.2323 27.5834C12.3113 27.814 12.4539 27.97 12.6815 28.0382C13.0021 28.1356 13.3218 28.2379 13.6407 28.3412C13.8479 28.408 14.0424 28.4016 14.2338 28.2776C14.4453 28.1405 14.6793 28.1018 14.9256 28.1391C15.3835 28.2045 15.8423 28.2635 16.3002 28.331C16.8608 28.4139 17.4047 28.4101 17.9345 28.1426C18.145 28.0372 18.3944 28.0133 18.6267 27.9549C18.6883 27.9395 18.7518 27.9331 18.8144 27.9222L18.8225 27.8642C16.8709 26.2781 14.5893 25.8194 12.1761 25.7161ZM33.1253 27.9008C33.2009 27.9293 33.2207 27.9384 33.2411 27.944C33.6052 28.0467 33.967 28.1588 34.3342 28.2473C34.5919 28.3096 34.8593 28.3879 35.1174 28.3728C35.678 28.3377 36.2362 28.2558 36.7938 28.1778C37.1359 28.13 37.4703 28.0927 37.7815 28.298C37.9439 28.4052 38.1162 28.4094 38.2956 28.3531C38.5634 28.2698 38.8254 28.164 39.0989 28.112C39.5949 28.0171 39.7934 27.6776 39.8519 27.1982C39.8583 27.1459 39.8677 27.0928 39.8717 27.0415C39.9058 26.6156 39.8866 26.1869 39.8145 25.7664C39.7338 25.7614 39.6675 25.7562 39.6009 25.7541C38.6972 25.7242 37.8143 25.8778 36.9388 26.0953C35.9541 26.3396 34.9848 26.6278 34.1156 27.1901C33.787 27.4035 33.4767 27.647 33.1253 27.9008Z" fill="white"/>
<path d="M11.1709 35.6008C11.2292 35.792 11.2713 35.9368 11.3165 36.0795C11.4123 36.3702 11.6067 36.5037 11.9016 36.4978C12.4414 36.4869 12.982 36.4774 13.5218 36.4833C14.0845 36.49 14.6467 36.5157 15.209 36.5336C15.2358 36.5336 15.2622 36.5406 15.3041 36.5463C15.3108 36.9329 15.3104 37.3093 15.1501 37.6635C15.0497 37.885 14.8824 37.9988 14.6454 37.9985C13.7708 37.9985 12.896 38.0031 12.0214 37.996C11.5528 37.9922 11.4039 37.8583 11.2995 37.3701C11.1783 36.8021 11.1435 36.2264 11.1709 35.6008Z" fill="white"/>
<path d="M40.7992 35.6069C40.835 36.2491 40.7992 36.8814 40.6455 37.5024C40.5692 37.8124 40.3865 37.9843 40.0742 37.9885C39.8513 37.9917 39.6287 37.9973 39.4048 37.9976C38.7301 37.999 38.0554 37.999 37.3809 37.9976C37.069 37.9976 36.909 37.8845 36.7952 37.578C36.6737 37.2494 36.666 36.9056 36.6751 36.5418C36.9676 36.5281 37.2551 36.5067 37.5426 36.5028C38.3171 36.4954 39.0919 36.4919 39.8664 36.4965C40.4738 36.5004 40.6111 36.3949 40.756 35.7711C40.7697 35.7162 40.7851 35.6618 40.7992 35.6069Z" fill="white"/>
<path d="M16.7133 14.0932C16.3231 14.276 15.9345 14.4633 15.5419 14.639C15.4908 14.6582 15.4457 14.6917 15.4115 14.7358C15.3772 14.78 15.3552 14.8332 15.3478 14.8896C15.2604 15.3283 15.1613 15.7644 15.0318 16.2094C14.9846 16.1039 14.9364 15.996 14.8906 15.8885C14.7567 15.5796 14.6208 15.2724 14.4973 14.9592C14.4531 14.8471 14.3865 14.8011 14.2804 14.7772C13.8614 14.6826 13.4437 14.5814 12.9922 14.4746C13.0302 14.4453 13.0699 14.4186 13.111 14.3944C13.4661 14.2264 13.8196 14.0539 14.179 13.8964C14.3025 13.8423 14.3541 13.7607 14.3798 13.6307C14.4682 13.1931 14.5653 12.7573 14.669 12.2737C14.7179 12.3791 14.7493 12.4448 14.7778 12.5116C14.9307 12.8687 15.0867 13.2244 15.232 13.585C15.2468 13.6279 15.2725 13.6658 15.3063 13.6945C15.3401 13.7232 15.3807 13.7418 15.4237 13.7481C15.8522 13.8461 16.2792 13.9491 16.7066 14.0503L16.7133 14.0932Z" fill="white"/>
<path d="M23.8857 12.8635C24.2693 12.6969 24.613 12.532 24.9675 12.3992C25.1613 12.3268 25.26 12.2203 25.3022 12.0041C25.3798 11.6112 25.4916 11.226 25.5987 10.799C25.7727 11.2421 25.9368 11.6425 26.0867 12.0516C26.1329 12.1763 26.1995 12.2319 26.321 12.2625C26.6627 12.3447 27.0007 12.4413 27.3401 12.5338C27.3977 12.5492 27.4536 12.5707 27.55 12.6041C27.1564 12.7752 26.8033 12.939 26.4421 13.081C26.2748 13.1467 26.1868 13.2374 26.1486 13.4286C26.0686 13.8282 25.9582 14.2208 25.8474 14.6605C25.763 14.4496 25.6938 14.2739 25.6255 14.102C25.5699 13.9614 25.4943 13.8258 25.4642 13.6803C25.3895 13.3214 25.1736 13.1763 24.8433 13.1204C24.5354 13.0645 24.2325 12.9573 23.8857 12.8635Z" fill="white"/>
<path d="M34.4382 15.1115C34.7749 14.9652 35.1076 14.8022 35.4503 14.6792C35.6662 14.6018 35.7666 14.4778 35.8108 14.2447C35.8824 13.868 35.9899 13.4982 36.091 13.0895C36.1244 13.1598 36.1495 13.2012 36.1669 13.2455C36.3045 13.597 36.4464 13.946 36.5753 14.2999C36.6238 14.4328 36.6924 14.5017 36.8283 14.5347C37.2269 14.6314 37.6218 14.7456 38.0646 14.8658C37.7577 14.9993 37.501 15.147 37.2256 15.2222C36.8182 15.3322 36.6248 15.5835 36.5692 16.0123C36.5314 16.3054 36.4354 16.5897 36.3544 16.9183C36.3185 16.8403 36.2941 16.7939 36.275 16.7451C36.1355 16.3887 35.9932 16.0333 35.8597 15.6745C35.8175 15.561 35.7593 15.4988 35.6408 15.4714C35.2392 15.3729 34.8439 15.258 34.4459 15.1494L34.4382 15.1115Z" fill="white"/>
<path d="M33.2006 10.1125C32.8515 10.2921 32.5393 10.4587 32.222 10.613C32.1763 10.6316 32.1363 10.6628 32.106 10.7032C32.0756 10.7436 32.0562 10.7918 32.0496 10.8428C31.9739 11.2524 31.878 11.6576 31.7624 12.0568C31.6694 11.7809 31.5482 11.5113 31.4903 11.2277C31.413 10.8474 31.2125 10.6572 30.8544 10.5915C30.6278 10.55 30.4099 10.4552 30.1562 10.3743C30.4933 10.2021 30.7945 10.038 31.1044 9.89492C31.234 9.83552 31.2862 9.74871 31.312 9.61375C31.3886 9.21483 31.4743 8.81768 31.5677 8.36499C31.6717 8.67112 31.7876 8.92136 31.8391 9.18531C31.9228 9.61269 32.136 9.84993 32.554 9.91108C32.7612 9.93955 32.959 10.0341 33.2006 10.1125Z" fill="white"/>
<path d="M18.4185 9.31378C18.6832 9.2347 18.9466 9.1507 19.2134 9.07865C19.3318 9.04666 19.4005 8.98867 19.4416 8.86074C19.531 8.58484 19.6404 8.31632 19.7582 8C19.8469 8.32897 19.9293 8.61542 19.9992 8.90502C20.0263 9.01855 20.0742 9.08286 20.1826 9.12293C20.4504 9.22169 20.7115 9.33592 21.0247 9.4642C20.7483 9.54574 20.5197 9.62939 20.2847 9.67825C20.0759 9.72218 19.9601 9.82762 19.9008 10.0445C19.8356 10.2828 19.7335 10.5095 19.6297 10.7906C19.536 10.4441 19.4624 10.1478 19.3723 9.85714C19.3445 9.78039 19.2899 9.71758 19.2197 9.68141C18.9566 9.56121 18.6865 9.45823 18.4191 9.34892L18.4185 9.31378Z" fill="white"/>
</svg>
