<svg width="52" height="52" viewBox="0 0 52 52" fill="none" xmlns="http://www.w3.org/2000/svg">
<circle cx="26" cy="26" r="26" fill="#2B334F"/>
<path d="M22.4697 16.728H30.1026C30.4714 22.5158 30.8403 28.3056 31.2094 34.0974H21.3655C21.7335 28.3078 22.1015 22.518 22.4697 16.728Z" fill="white"/>
<path d="M19.9478 34.8154H32.6272C32.5536 35.1711 32.4836 35.5145 32.4107 35.8561C32.2662 36.5354 32.1212 37.2142 31.9756 37.8924C31.9117 38.1976 31.7406 38.4724 31.491 38.6706C31.2413 38.8688 30.9283 38.9783 30.6046 38.9809C30.2067 38.9861 29.8088 38.9824 29.4109 38.9824H22.0741C21.2643 38.9824 20.7305 38.5511 20.5717 37.7841C20.3807 36.86 20.1811 35.9375 19.9856 35.0144C19.9729 34.9541 19.9627 34.8944 19.9478 34.8154Z" fill="white"/>
<path d="M21.4818 16.9742C21.4499 17.4232 21.4213 17.86 21.3901 18.2962C21.3203 19.2681 21.2504 20.2398 21.1803 21.2113C21.0997 22.325 21.0192 23.439 20.9387 24.5533C20.8706 25.4995 20.8027 26.4457 20.735 27.3919C20.665 28.3687 20.5946 29.3454 20.524 30.322C20.4558 31.2733 20.3881 32.2246 20.3209 33.1759C20.304 33.41 20.289 33.6445 20.2639 33.8774C20.2585 33.9018 20.2469 33.9245 20.2303 33.9436C20.2136 33.9627 20.1924 33.9776 20.1684 33.987C19.6909 34.0819 19.209 34.1094 18.736 33.9833C17.9084 33.7632 17.4468 33.2227 17.2969 32.4223C17.2014 31.9151 17.2994 31.4168 17.3736 30.9173C17.5491 29.7316 17.7251 28.5459 17.9017 27.3604C18.0666 26.2403 18.2297 25.1201 18.3909 23.9996C18.5584 22.8387 18.7188 21.6771 18.8904 20.5168C18.9715 19.9674 19.0495 19.4149 19.1679 18.8737C19.3834 17.8995 20.0331 17.3155 21.0237 17.066C21.151 17.0339 21.2803 17.0048 21.4092 16.9742C21.4333 16.9721 21.4576 16.9721 21.4818 16.9742Z" fill="white"/>
<path d="M31.1255 16.9766C32.2227 17.0182 33.171 17.7724 33.4282 18.8391C33.5625 19.3983 33.6344 19.9715 33.7188 20.5412C33.878 21.6204 34.0263 22.7012 34.1816 23.781C34.3452 24.9161 34.5104 26.0511 34.6772 27.1858C34.8501 28.3609 35.0303 29.535 35.1983 30.7106C35.262 31.144 35.3368 31.5805 35.3387 32.0157C35.3447 33.2707 34.4926 34.0686 33.1894 34.061C32.9577 34.061 32.7263 34.0154 32.4942 33.9997C32.3717 33.9921 32.3351 33.9364 32.3284 33.8271C32.2966 33.3285 32.2603 32.8302 32.2246 32.3319C32.144 31.2133 32.0632 30.0946 31.9824 28.9758C31.9145 28.0349 31.847 27.0941 31.7799 26.1534C31.6989 25.0244 31.6176 23.8955 31.5361 22.7667C31.468 21.8156 31.4003 20.8646 31.333 19.9137C31.2662 18.9728 31.1992 18.0319 31.1322 17.091C31.1299 17.0577 31.1284 17.0231 31.1255 16.9766Z" fill="white"/>
<path d="M26.2848 15.8407C25.4572 15.8407 24.6295 15.8407 23.8019 15.8407C22.9383 15.8407 22.3259 15.2558 22.3259 14.4288C22.3259 14.1949 22.3179 13.9574 22.3558 13.7279C22.4064 13.4309 22.561 13.1595 22.7939 12.9586C23.0269 12.7577 23.3242 12.6394 23.6367 12.6232C23.8958 12.6091 24.1562 12.6162 24.4163 12.6162C25.8535 12.6162 27.291 12.6315 28.7278 12.6101C29.6 12.5969 30.2838 13.2241 30.2468 14.0792C30.2366 14.318 30.2513 14.5632 30.1994 14.7939C30.0606 15.4131 29.494 15.8374 28.8306 15.8407C27.982 15.8441 27.1331 15.8407 26.2848 15.8407Z" fill="white"/>
<path d="M17.0827 10.9919C17.3313 11.7076 17.5675 12.387 17.803 13.0665C17.8718 13.2646 17.9453 13.4611 18.0052 13.6616C18.037 13.7665 18.0975 13.8174 18.2035 13.851C19.0683 14.1234 19.9316 14.402 20.7949 14.6774C20.8433 14.6927 20.8904 14.7111 20.9782 14.7426C20.7732 14.81 20.6068 14.8651 20.4393 14.9195C19.6913 15.1598 18.9433 15.4013 18.1943 15.637C18.1492 15.6482 18.1081 15.6709 18.0752 15.7026C18.0423 15.7343 18.0189 15.7739 18.0074 15.8173C17.7069 16.6973 17.401 17.5751 17.0843 18.49C17.0525 18.4104 17.0305 18.362 17.0133 18.3124C16.7268 17.486 16.4378 16.6624 16.1577 15.835C16.1182 15.719 16.0555 15.6642 15.938 15.6293C15.0229 15.3575 14.1096 15.0799 13.1961 14.8029C13.1461 14.7879 13.0964 14.7723 13 14.7417C13.0885 14.7111 13.1381 14.6934 13.1888 14.678C14.1077 14.4026 15.0264 14.1231 15.9466 13.8516C16.06 13.818 16.1166 13.7626 16.1539 13.653C16.4429 12.807 16.7396 11.9631 17.034 11.1187C17.0426 11.0902 17.0553 11.0626 17.0827 10.9919Z" fill="white"/>
<path d="M33.7401 34.5869C34.3955 34.6806 35.0407 34.7623 35.6086 35.1039C35.8725 35.2627 35.9393 35.5309 35.9798 35.8011C36.0466 36.2505 35.9409 36.6753 35.7273 37.0717C35.2117 38.0285 34.4369 38.6884 33.3241 38.9332C33.1159 38.9791 32.8963 38.977 32.6489 39C33.0166 37.5133 33.3744 36.0644 33.7401 34.5869Z" fill="white"/>
<path d="M19.9185 38.9743C19.439 39.0125 18.9584 38.9168 18.5341 38.6988C17.5518 38.2048 16.8684 37.4702 16.6137 36.4105C16.5377 36.0949 16.5608 35.7647 16.6802 35.4617C16.7381 35.2959 16.8573 35.1562 17.0151 35.0693C17.575 34.7608 18.197 34.6748 18.8336 34.5845C19.1968 36.0561 19.5572 37.5084 19.9185 38.9743Z" fill="white"/>
<path d="M23.1147 11.2276L22.0404 11.5735C21.8698 11.6286 21.7014 11.6923 21.5276 11.7348C21.4035 11.7654 21.349 11.8328 21.3115 11.9448C21.1564 12.41 20.9932 12.8725 20.8321 13.3359C20.8222 13.3644 20.8092 13.3919 20.7853 13.4504C20.7315 13.2998 20.6857 13.1749 20.6427 13.051C20.5122 12.6745 20.3791 12.2986 20.255 11.92C20.2439 11.8765 20.2204 11.8368 20.1873 11.8054C20.1541 11.7739 20.1126 11.7519 20.0672 11.7419C19.5111 11.5793 18.9566 11.4104 18.3613 11.2332C18.4501 11.2025 18.5046 11.1796 18.5609 11.1628C19.0556 11.0134 19.5496 10.8616 20.0462 10.7183C20.1595 10.6859 20.22 10.6332 20.2566 10.523C20.4224 10.0241 20.5978 9.52829 20.7808 9C20.8127 9.08203 20.8375 9.13498 20.8566 9.18916C21.0158 9.64215 21.1749 10.0948 21.3287 10.55C21.3389 10.5885 21.3599 10.6236 21.3893 10.6514C21.4188 10.6793 21.4556 10.699 21.4958 10.7082C21.9691 10.8554 22.4405 11.0091 22.9123 11.1609C22.9657 11.1771 23.0189 11.1955 23.1147 11.2276Z" fill="white"/>
</svg>
