<svg width="53" height="60" viewBox="0 0 53 60" fill="none" xmlns="http://www.w3.org/2000/svg">
<path d="M47.3214 7.5H41.6429V1.40625C41.6429 0.629648 41.0072 0 40.2232 0H35.4911C34.7071 0 34.0714 0.629648 34.0714 1.40625V7.5H18.9286V1.40625C18.9286 0.629648 18.2929 0 17.5089 0H12.7768C11.9928 0 11.3571 0.629648 11.3571 1.40625V7.5H5.67857C2.54234 7.5 0 10.0184 0 13.125V54.375C0 57.4816 2.54234 60 5.67857 60H47.3214C50.4577 60 53 57.4816 53 54.375V13.125C53 10.0184 50.4577 7.5 47.3214 7.5ZM46.6116 54.375H6.38839C6.20014 54.375 6.01959 54.3009 5.88647 54.1691C5.75336 54.0372 5.67857 53.8584 5.67857 53.6719V18.75H47.3214V53.6719C47.3214 53.8584 47.2466 54.0372 47.1135 54.1691C46.9804 54.3009 46.7999 54.375 46.6116 54.375ZM40.3594 30.8613L23.5237 47.4046C22.9671 47.9515 22.0682 47.948 21.516 47.3966L12.6325 38.5256C12.0803 37.9743 12.0839 37.0839 12.6405 36.5368L15.3282 33.8959C15.8849 33.349 16.7837 33.3525 17.3359 33.904L22.5535 39.1143L35.6937 26.2024C36.2503 25.6555 37.1492 25.659 37.7015 26.2104L40.3675 28.8727C40.9197 29.424 40.916 30.3144 40.3594 30.8613Z" fill="#2B334F"/>
</svg>
