<svg width="33" height="34" viewBox="0 0 33 34" fill="none" xmlns="http://www.w3.org/2000/svg">
<g clip-path="url(#clip0_1_1544)">
<path d="M20.6712 23.0356C20.5535 23.7505 19.9941 23.4214 19.6183 23.543V30.2767H20.793V34H0V30.2914H1.00332C1.00332 30.1551 1.01983 30.0503 1.01983 29.9476C1.02809 21.218 1.03222 12.4892 1.03222 3.76101C1.03222 2.93501 1.0157 2.1174 1.03222 1.29769C1.04207 1.16207 1.09495 1.03335 1.18292 0.930818C1.42518 0.656647 1.6808 0.394964 1.94883 0.146751C2.04394 0.0606965 2.16445 0.00908796 2.29152 0C7.63153 0 12.9729 0 18.3157 0C18.4503 0.00607887 18.5788 0.0594282 18.679 0.150943C18.9928 0.454927 19.4057 0.725367 19.5502 1.09853C19.6947 1.4717 19.6121 1.95597 19.6121 2.38994C19.6121 4.1174 19.6121 5.84486 19.6121 7.57233C19.6121 7.75052 19.6514 7.84067 19.8372 7.8826C20.1922 7.96226 20.5391 8.07128 20.888 8.16981C21.2443 8.26052 21.5565 8.47859 21.7674 8.78407C21.9904 9.10692 22.2009 9.43816 22.428 9.75681C22.4541 9.79184 22.4878 9.82029 22.5265 9.83992C22.5651 9.85956 22.6078 9.86986 22.651 9.87002C22.8243 9.82503 23.0058 9.82346 23.1799 9.86546C23.3539 9.90745 23.5153 9.99175 23.6502 10.1111C23.8618 10.2847 24.0612 10.4731 24.2468 10.6751C24.7485 11.1971 25.2377 11.7233 25.7414 12.2516C25.8655 12.3584 25.9492 12.5056 25.9781 12.6681C26.0071 12.8306 25.9797 12.9983 25.9004 13.1426C25.8549 13.2275 25.8373 13.325 25.8503 13.4209C25.8633 13.5167 25.9062 13.6058 25.9727 13.6751C26.3856 14.2096 26.784 14.7568 27.2113 15.283C27.3374 15.4343 27.4927 15.5578 27.6676 15.6457C27.775 15.7081 27.8685 15.7925 27.9421 15.8935C28.0156 15.9946 28.0677 16.1101 28.0949 16.2327C28.1135 16.2893 28.0516 16.3878 28.0061 16.4423C27.9361 16.532 27.861 16.6174 27.7811 16.6981C28.4293 17.7002 29.1209 18.6834 29.7217 19.7191C31.076 22.0545 32.1536 24.5157 32.7378 27.174C32.9917 28.327 33.1259 29.4906 32.9133 30.6667C32.5272 32.7946 30.9562 33.5052 29.5256 33.4717C29.1589 33.4688 28.7983 33.3757 28.4748 33.2005C28.1512 33.0252 27.8742 32.773 27.6676 32.4654C27.3036 31.9481 26.991 31.3955 26.7344 30.8155C26.2865 29.8092 25.9087 28.7673 25.4793 27.7526C24.9905 26.538 24.2514 25.4436 23.3116 24.543C22.5507 23.8503 21.6494 23.3358 20.6712 23.0356ZM10.349 10.3208H16.6868C17.0997 10.3208 17.1782 10.2432 17.1782 9.81971V3.78407C17.1782 3.31237 17.1121 3.24528 16.6517 3.24528H4.04836C3.61483 3.24528 3.55083 3.31237 3.55083 3.75891V9.79455C3.55083 10.2558 3.61276 10.3208 4.06075 10.3208H10.349ZM19.6204 8.99581C19.612 9.03658 19.6065 9.07792 19.6039 9.1195C19.6039 10.6038 19.6039 12.0881 19.6039 13.5702C19.6078 13.6701 19.6361 13.7674 19.6865 13.8533C20.5122 15.3375 21.338 16.8176 22.1431 18.304C22.1702 18.3634 22.2153 18.4125 22.2717 18.4441C22.3281 18.4758 22.393 18.4884 22.4569 18.4801C22.8533 18.4696 23.2497 18.4801 23.646 18.4801C23.7183 18.4801 23.8277 18.5073 23.8525 18.5597C24.1167 19.0398 24.3665 19.5262 24.639 20.0503H19.6121V21.5618C19.8045 21.546 19.9978 21.546 20.1902 21.5618C20.327 21.6035 20.4561 21.668 20.5721 21.7526C20.6712 21.8113 20.7538 21.9161 20.8591 21.9476C22.5228 22.4355 23.9855 23.4589 25.0272 24.8637C25.5811 25.6003 26.0442 26.4029 26.4062 27.2537C26.8501 28.3019 27.2526 29.3627 27.7006 30.3983C27.8909 30.8351 28.1153 31.2557 28.3715 31.6562C28.484 31.8483 28.6369 32.0127 28.8193 32.1377C29.0017 32.2628 29.209 32.3453 29.4265 32.3795C30.5227 32.5472 31.5157 31.8449 31.8026 30.6855C31.9768 29.8807 31.988 29.0484 31.8357 28.239C31.5704 26.6697 31.1098 25.141 30.4649 23.6897C29.5767 21.5212 28.4173 19.4778 27.0152 17.6101C26.9512 17.5262 26.881 17.4465 26.8583 17.4193C26.6731 17.4842 26.4782 17.5161 26.2823 17.5136C26.0759 17.4696 25.8694 16.9706 25.8963 16.74C25.8904 16.6402 25.8717 16.5415 25.8405 16.4465C25.4277 16.847 25.0602 17.2096 24.6824 17.5597C24.1147 18.0839 23.4809 18.0524 22.9545 17.4885C22.8789 17.4106 22.8099 17.3264 22.748 17.2369C22.1287 16.3166 21.5094 15.3983 20.89 14.4696C20.8094 14.3275 20.7754 14.163 20.793 14C20.8368 13.6511 20.8982 13.3048 20.9767 12.9623C21.0717 12.5115 21.1212 12.0839 20.8198 11.6688C20.6402 11.4235 20.7104 11.1845 20.9416 10.9769C21.08 10.8512 21.2369 10.7421 21.3855 10.6247C21.1749 10.3381 20.9799 10.0399 20.8013 9.73166C20.5597 9.22432 20.1365 9.05451 19.6225 8.99581H19.6204ZM14.2322 13.6541C14.7359 13.6541 15.2376 13.6541 15.7413 13.6541C15.7974 13.6621 15.8545 13.6568 15.9082 13.6386C15.9619 13.6204 16.0107 13.5897 16.0508 13.549C16.0908 13.5084 16.121 13.4588 16.1389 13.4043C16.1569 13.3498 16.1621 13.2917 16.1542 13.2348C16.1542 13.0587 16.1542 12.8847 16.1542 12.7086C16.162 12.6531 16.1573 12.5966 16.1404 12.5433C16.1235 12.49 16.0948 12.4413 16.0566 12.4009C16.0184 12.3605 15.9717 12.3294 15.9199 12.3101C15.8681 12.2908 15.8127 12.2837 15.7578 12.2893C14.7366 12.2893 13.7154 12.2893 12.6942 12.2893C12.6422 12.2853 12.59 12.2927 12.5411 12.3109C12.4921 12.3291 12.4476 12.3577 12.4104 12.3949C12.3733 12.432 12.3444 12.4768 12.3257 12.5262C12.307 12.5756 12.2989 12.6285 12.302 12.6813C12.302 12.8491 12.302 13.0168 12.302 13.1824C12.302 13.5115 12.4341 13.6415 12.752 13.6436C13.2434 13.6562 13.7388 13.6541 14.2322 13.6541ZM24.7423 14.8847C24.6308 14.9769 24.5358 15.0503 24.4512 15.1195C24.1415 15.3627 24.0383 15.3417 23.8318 15.0021C23.6605 14.717 23.4995 14.4235 23.3178 14.1447C23.2683 14.0671 23.1341 13.9602 23.0866 13.9811C22.7047 14.1426 22.3331 14.3333 21.945 14.5199C22.3 15.0503 22.6303 15.5514 22.9648 16.0461C23.0928 16.2411 23.2307 16.4294 23.3777 16.6101C23.4933 16.7484 23.6543 16.8197 23.8091 16.673C24.2468 16.2537 24.6741 15.8344 25.1035 15.4151L24.7423 14.8847Z" fill="#2B334F"/>
</g>
<defs>
<clipPath id="clip0_1_1544">
<rect width="33" height="34" fill="white"/>
</clipPath>
</defs>
</svg>
