<svg width="296" height="138" viewBox="0 0 296 138" fill="none" xmlns="http://www.w3.org/2000/svg">
<path d="M0 0H296V99.639L148 138L0 99.639V0Z" fill="white"/>
<path d="M123.934 56.5753L101.215 69.4429L108.056 73.699L123.549 65.2411C122.224 71.8763 118.645 77.8466 113.423 82.1363C108.2 86.4261 101.656 88.7704 94.9034 88.7704C88.1505 88.7704 81.6062 86.4261 76.3838 82.1363C71.1613 77.8466 67.5831 71.8763 66.258 65.2411L81.8549 73.5654L88.5717 69.4181L65.853 56.5753C66.07 54.3328 66.5491 52.1236 67.2804 49.9931L94.8787 65.7707L122.507 49.9882C123.238 52.1187 123.717 54.3279 123.934 56.5704V56.5753Z" fill="#114377"/>
<path d="M94.9182 30.2217L69.8931 44.4007H86.0876V53.6554L94.7701 58.6143L103.675 53.5267V44.4007H119.657L119.874 44.277L94.9182 30.2217Z" fill="#F5C257"/>
<path d="M144.569 67.1561C145.471 67.3624 146.268 67.89 146.811 68.6409C147.345 69.4034 147.62 70.3177 147.596 71.249C147.612 71.8825 147.493 72.5122 147.247 73.096C147.001 73.6797 146.633 74.2041 146.169 74.6341C145.151 75.5496 143.817 76.0308 142.45 75.9753H134.597V59.9355H142.084C142.711 59.894 143.339 59.9781 143.933 60.1829C144.527 60.3877 145.073 60.7091 145.542 61.1282C145.931 61.4775 146.243 61.9054 146.456 62.3839C146.668 62.8625 146.778 63.3807 146.776 63.9046C146.776 64.6105 146.564 65.3 146.169 65.8842C145.794 66.4766 145.23 66.9247 144.569 67.1561ZM141.324 63.3602H138.558V66.0723H141.151C141.592 66.1019 142.029 65.9661 142.376 65.6912C142.515 65.5676 142.624 65.4147 142.697 65.2436C142.769 65.0724 142.803 64.8872 142.796 64.7014C142.799 64.5231 142.765 64.3461 142.696 64.1817C142.627 64.0173 142.525 63.869 142.396 63.7462C142.251 63.6142 142.082 63.5122 141.898 63.4459C141.714 63.3797 141.519 63.3505 141.324 63.3602ZM138.558 72.4863H141.586C142.088 72.5227 142.585 72.3591 142.969 72.0309C143.126 71.8898 143.252 71.7165 143.337 71.5228C143.422 71.329 143.465 71.1192 143.462 70.9075C143.466 70.6919 143.424 70.478 143.339 70.28C143.254 70.082 143.128 69.9045 142.969 69.7593C142.793 69.6012 142.587 69.4796 142.365 69.4014C142.142 69.3233 141.905 69.2902 141.67 69.304H138.558V72.4863Z" fill="#114377"/>
<path d="M157.44 76.2179C156.332 76.2451 155.231 76.0479 154.201 75.638C153.172 75.2281 152.236 74.6139 151.449 73.8325C149.914 72.2602 149.054 70.1479 149.054 67.9481C149.054 65.7482 149.914 63.6359 151.449 62.0636C152.614 60.8768 154.105 60.0646 155.733 59.7307C157.36 59.3967 159.05 59.5561 160.587 60.1885C162.123 60.8209 163.437 61.8977 164.361 63.2814C165.284 64.6652 165.775 66.2933 165.772 67.958C165.796 69.0481 165.597 70.1316 165.188 71.1419C164.778 72.1521 164.167 73.0678 163.391 73.8325C162.614 74.6158 161.685 75.2316 160.662 75.6418C159.638 76.0521 158.542 76.2481 157.44 76.2179ZM157.44 72.2042C157.99 72.2139 158.536 72.1114 159.046 71.903C159.555 71.6945 160.017 71.3845 160.403 70.9917C160.802 70.5923 161.115 70.1154 161.323 69.5903C161.531 69.0652 161.63 68.5029 161.613 67.9382C161.618 67.3703 161.509 66.8072 161.294 66.282C161.079 65.7568 160.761 65.28 160.359 64.8797C159.97 64.4888 159.508 64.1787 159 63.9671C158.491 63.7555 157.946 63.6465 157.395 63.6465C156.845 63.6465 156.3 63.7555 155.791 63.9671C155.282 64.1787 154.821 64.4888 154.432 64.8797C153.66 65.7052 153.23 66.7943 153.23 67.9258C153.23 69.0573 153.66 70.1464 154.432 70.9719C154.818 71.3733 155.283 71.69 155.797 71.9021C156.311 72.1142 156.864 72.2171 157.42 72.2042H157.44Z" fill="#114377"/>
<path d="M175.55 76.1934C174.471 76.2239 173.397 76.0387 172.391 75.6487C171.384 75.2587 170.465 74.6716 169.688 73.9218C168.904 73.1507 168.289 72.2243 167.883 71.2017C167.476 70.1791 167.287 69.0829 167.327 67.9829C167.295 66.8855 167.486 65.793 167.888 64.7716C168.29 63.7502 168.895 62.8212 169.665 62.0407C170.436 61.2602 171.357 60.6445 172.371 60.2308C173.386 59.8171 174.474 59.614 175.57 59.6339C176.925 59.6215 178.266 59.9106 179.496 60.4802C180.644 61.0102 181.644 61.814 182.41 62.8211L179.832 65.5282C178.594 64.2085 177.254 63.5486 175.812 63.5486C175.238 63.5357 174.667 63.6406 174.134 63.8568C173.602 64.0729 173.119 64.3958 172.715 64.8057C172.309 65.2285 171.992 65.7281 171.781 66.2753C171.569 66.8225 171.469 67.4064 171.486 67.9928C171.47 68.5696 171.57 69.1436 171.782 69.6803C171.993 70.2169 172.311 70.7052 172.715 71.1157C173.117 71.5191 173.597 71.8367 174.125 72.0494C174.653 72.262 175.218 72.3653 175.787 72.3529C176.584 72.3458 177.369 72.1567 178.082 71.7999C178.795 71.4432 179.417 70.9282 179.901 70.2941L182.583 72.8726C181.79 73.8893 180.777 74.7118 179.62 75.2778C178.355 75.9008 176.96 76.2146 175.55 76.1934Z" fill="#114377"/>
<path d="M187.423 75.9556H182.731L187.704 67.8936L183.141 59.9751H187.793L190.322 64.8747L193.093 59.9751H197.79L192.9 67.8936L197.681 75.9803H193.048L190.282 70.9323L187.423 75.9556Z" fill="#114377"/>
<path d="M206.053 76.2179C204.945 76.2454 203.844 76.0483 202.814 75.6384C201.784 75.2284 200.848 74.6142 200.062 73.8325C198.526 72.2602 197.667 70.1479 197.667 67.9481C197.667 65.7482 198.526 63.6359 200.062 62.0636C201.227 60.8768 202.718 60.0646 204.345 59.7307C205.973 59.3967 207.663 59.5561 209.199 60.1885C210.736 60.8209 212.05 61.8977 212.974 63.2814C213.897 64.6652 214.388 66.2933 214.384 67.958C214.408 69.0481 214.21 70.1316 213.8 71.1419C213.391 72.1521 212.78 73.0678 212.004 73.8325C211.227 74.6156 210.298 75.2312 209.274 75.6414C208.251 76.0517 207.154 76.2478 206.053 76.2179ZM206.053 72.2042C206.603 72.2145 207.149 72.1123 207.659 71.9038C208.168 71.6953 208.63 71.385 209.016 70.9917C209.416 70.593 209.729 70.1163 209.938 69.591C210.146 69.0657 210.244 68.5031 210.226 67.9382C210.232 67.3702 210.124 66.8067 209.908 66.2814C209.693 65.756 209.374 65.2793 208.971 64.8797C208.583 64.4888 208.121 64.1787 207.612 63.9671C207.104 63.7555 206.559 63.6465 206.008 63.6465C205.458 63.6465 204.912 63.7555 204.404 63.9671C203.895 64.1787 203.433 64.4888 203.045 64.8797C202.273 65.7052 201.843 66.7943 201.843 67.9258C201.843 69.0573 202.273 70.1464 203.045 70.9719C203.431 71.3728 203.896 71.6892 204.41 71.9013C204.924 72.1134 205.477 72.2165 206.033 72.2042H206.053Z" fill="#114377"/>
<path d="M229.418 59.9355V72.2042H231.166V79.2071H227.146V75.9556H219.14V79.2071H215.095V72.2042H216.577C217.69 70.0827 218.49 66.7454 218.977 62.1923L219.234 59.9355H229.418ZM220.74 72.2042H225.378V63.7315H222.711L222.558 64.7708C222.226 67.308 221.617 69.8008 220.74 72.2042Z" fill="#114377"/>
<path d="M136.478 56.689H134.849V50.0474H139.185V51.5321H136.478V56.689Z" fill="#114377"/>
<path d="M139.936 50.0473H142.573C142.914 50.0186 143.258 50.0629 143.58 50.1772C143.903 50.2916 144.198 50.4733 144.445 50.7105C144.652 50.9297 144.813 51.1877 144.92 51.4697C145.027 51.7517 145.077 52.0521 145.068 52.3536C145.077 52.6526 145.026 52.9504 144.916 53.2288C144.806 53.5071 144.641 53.76 144.43 53.9719C144.159 54.2029 143.845 54.3779 143.506 54.4866C143.167 54.5953 142.81 54.6357 142.455 54.6054H141.61V56.6889H139.936V50.0473ZM141.61 53.091H142.534C142.642 53.098 142.751 53.0832 142.854 53.0475C142.956 53.0118 143.051 52.9559 143.131 52.8831C143.268 52.7357 143.344 52.5422 143.344 52.3412C143.344 52.1402 143.268 51.9466 143.131 51.7993C143.059 51.7263 142.971 51.6693 142.875 51.6318C142.779 51.5943 142.676 51.5772 142.573 51.5815H141.61V53.091Z" fill="#114377"/>
<path d="M146.515 56.7878C146.171 56.797 145.831 56.7187 145.527 56.5601L145.64 55.2239C145.823 55.3026 146.019 55.3446 146.218 55.3476C146.472 55.3394 146.717 55.252 146.919 55.0976C147.121 54.9432 147.269 54.7296 147.344 54.4865L145.28 50.0323H147.255L148.243 52.6306L149.112 50.0323H151.088L150.392 51.6309C149.809 52.9968 149.402 53.9173 149.172 54.3925C149.038 54.6647 148.959 54.8329 148.93 54.8874C148.865 55.021 148.786 55.1794 148.688 55.3823C148.604 55.5448 148.504 55.6989 148.391 55.8425C148.176 56.1147 147.909 56.3417 147.606 56.5106C147.271 56.692 146.896 56.7872 146.515 56.7878Z" fill="#114377"/>
<path d="M153.295 56.689H151.616V50.0474H157.306V56.689H155.617V51.6558H153.295V56.689Z" fill="#114377"/>
<path d="M160.293 56.689H158.614V50.0474H164.304V56.689H162.615V51.6558H160.293V56.689Z" fill="#114377"/>
<path d="M171.318 56.689H169.594L169.209 55.4765H167.1L166.705 56.689H164.976L167.396 50.0474H168.957L171.318 56.689ZM167.525 54.0363H168.804L168.176 52.0567L167.525 54.0363Z" fill="#114377"/>
<path d="M179.94 56.689H177.891L176.409 54.2986L175.688 55.1696V56.689H174.014V50.0474H175.688V52.7792L177.777 50.0474H179.807L177.51 52.9871L179.94 56.689Z" fill="#114377"/>
<path d="M183.195 56.7978C182.738 56.8074 182.284 56.7247 181.86 56.5546C181.436 56.3846 181.05 56.1306 180.726 55.808C180.252 55.3202 179.933 54.7037 179.807 54.0352C179.681 53.3668 179.754 52.6759 180.018 52.0489C180.281 51.4219 180.723 50.8865 181.288 50.5094C181.853 50.1323 182.516 49.9303 183.195 49.9285C183.652 49.9154 184.108 49.9965 184.532 50.1668C184.957 50.337 185.342 50.5928 185.665 50.9183C186.307 51.5672 186.667 52.4442 186.667 53.3582C186.667 54.2722 186.307 55.1492 185.665 55.7981C185.343 56.1253 184.958 56.383 184.533 56.5549C184.109 56.7269 183.653 56.8096 183.195 56.7978ZM183.195 55.1349C183.424 55.1411 183.653 55.1004 183.866 55.0153C184.079 54.9302 184.273 54.8025 184.435 54.64C184.761 54.2991 184.943 53.8452 184.943 53.373C184.943 52.9009 184.761 52.447 184.435 52.1061C184.274 51.9415 184.082 51.8107 183.87 51.7214C183.658 51.6321 183.43 51.5862 183.2 51.5862C182.97 51.5862 182.742 51.6321 182.53 51.7214C182.318 51.8107 182.126 51.9415 181.965 52.1061C181.801 52.2704 181.673 52.4668 181.588 52.6831C181.503 52.8993 181.463 53.1308 181.471 53.3631C181.463 53.5969 181.503 53.8298 181.588 54.0477C181.673 54.2655 181.801 54.4637 181.965 54.6301C182.124 54.7927 182.314 54.9212 182.524 55.008C182.733 55.0948 182.958 55.138 183.185 55.1349H183.195Z" fill="#114377"/>
<path d="M189.271 56.689H187.626V50.0474H188.866L191.251 53.4622L193.627 50.0474H194.876V56.689H193.217V53.4968L191.557 55.8278H190.93L189.271 53.4968V56.689Z" fill="#114377"/>
<path d="M197.864 56.689H196.185V50.0474H201.874V56.689H200.19V51.6558H197.869L197.864 56.689Z" fill="#114377"/>
<path d="M208.887 56.689H207.164L206.778 55.4765H204.67L204.274 56.689H202.546L204.966 50.0474H206.527L208.887 56.689ZM205.094 54.0363H206.374L205.746 52.0567L205.094 54.0363Z" fill="#114377"/>
<path d="M211.253 56.689H209.574V50.0474H211.248V52.5813H213.574V50.0474H215.258V56.689H213.574V54.2145H211.253V56.689Z" fill="#114377"/>
<path d="M217.644 56.689H216.577V50.0474H218.217V53.9175L221.249 50.0474H222.336V56.689H220.691V52.8584L217.644 56.689Z" fill="#114377"/>
<path d="M224.711 56.689H223.645V50.0474H225.284V53.9176L228.341 50.0474H229.428V56.689H227.788V52.8585L224.711 56.689ZM224.622 48.632L225.447 47.7906C225.626 48.0328 225.844 48.2421 226.094 48.4093C226.29 48.5227 226.512 48.5823 226.739 48.5823C226.965 48.5823 227.187 48.5227 227.383 48.4093C227.633 48.2421 227.852 48.0328 228.03 47.7906L228.855 48.632C228.615 48.9734 228.297 49.2528 227.927 49.4472C227.558 49.6417 227.148 49.7456 226.731 49.7505C226.316 49.7469 225.908 49.6434 225.541 49.4488C225.174 49.2541 224.859 48.974 224.622 48.632Z" fill="#114377"/>
<path d="M188.475 40.6193L189.058 36.7145H187.72L187.819 36.0167H191.221L191.123 36.7145H189.779L189.196 40.6094L188.475 40.6193Z" fill="#908F90"/>
<path d="M194.856 37.7587L194.93 37.2638H195.587L195.093 40.6094H194.441L194.51 40.1145C194.358 40.2956 194.17 40.442 193.957 40.5436C193.744 40.6452 193.511 40.6997 193.275 40.7034C193.058 40.7162 192.841 40.675 192.644 40.5834C192.447 40.4919 192.275 40.3529 192.144 40.1788C191.888 39.7914 191.794 39.3186 191.883 38.8624C191.941 38.4011 192.168 37.978 192.52 37.6746C192.863 37.3678 193.309 37.2018 193.769 37.2094C193.982 37.202 194.193 37.2484 194.383 37.3444C194.573 37.4405 194.735 37.583 194.856 37.7587ZM193.468 40.0749C193.618 40.0768 193.767 40.0485 193.907 39.9915C194.046 39.9346 194.172 39.8502 194.278 39.7433C194.506 39.5317 194.651 39.2457 194.688 38.9366C194.714 38.801 194.712 38.6614 194.681 38.5268C194.651 38.3921 194.592 38.2653 194.51 38.1547C194.426 38.0438 194.317 37.9552 194.191 37.8966C194.066 37.8379 193.927 37.811 193.789 37.8181C193.502 37.8167 193.224 37.9206 193.009 38.1101C192.793 38.2981 192.646 38.5521 192.589 38.8327C192.553 38.9795 192.546 39.132 192.569 39.2815C192.592 39.431 192.644 39.5745 192.722 39.7037C192.803 39.8259 192.914 39.9246 193.045 39.9898C193.176 40.055 193.322 40.0844 193.468 40.0749Z" fill="#908F90"/>
<path d="M199.8 37.2739H200.684L198.95 38.6943L200.215 40.6294H199.365L198.402 39.1447L198.061 39.4169L197.883 40.6343H197.227L197.72 37.2888H198.387L198.19 38.6102L199.8 37.2739Z" fill="#908F90"/>
<path d="M203.258 40.6736C203.033 40.6901 202.808 40.6539 202.599 40.568C202.391 40.4821 202.206 40.3488 202.058 40.1787C201.918 40.0005 201.818 39.7943 201.764 39.574C201.71 39.3538 201.704 39.1246 201.746 38.9019C201.792 38.4185 202.02 37.9708 202.384 37.6498C202.745 37.3444 203.204 37.1794 203.677 37.1845C203.993 37.1772 204.304 37.2577 204.576 37.4171C204.829 37.5799 205.022 37.8192 205.13 38.1001L204.547 38.3971C204.478 38.2169 204.354 38.0634 204.192 37.9592C204.031 37.8549 203.84 37.8055 203.648 37.818C203.341 37.8172 203.045 37.9321 202.818 38.1397C202.583 38.3526 202.435 38.6454 202.403 38.9612C202.381 39.0998 202.387 39.2413 202.421 39.3774C202.455 39.5135 202.516 39.6413 202.601 39.7531C202.684 39.8568 202.79 39.9394 202.911 39.9944C203.032 40.0494 203.164 40.0753 203.297 40.0698C203.51 40.0684 203.718 40.014 203.905 39.9115C204.101 39.8109 204.27 39.665 204.399 39.4858L204.892 39.857C204.718 40.1196 204.478 40.3313 204.196 40.4707C203.903 40.6101 203.582 40.6795 203.258 40.6736Z" fill="#908F90"/>
<path d="M208.181 40.7084C207.953 40.7219 207.726 40.6809 207.517 40.5888C207.308 40.4967 207.124 40.3562 206.981 40.1789C206.842 39.9999 206.743 39.7935 206.691 39.5734C206.638 39.3533 206.632 39.1245 206.674 38.902C206.746 38.4271 206.984 37.9933 207.346 37.6786C207.708 37.3638 208.171 37.1887 208.65 37.1847C208.875 37.1724 209.1 37.2141 209.306 37.3061C209.513 37.3982 209.694 37.5381 209.835 37.7143C209.976 37.8938 210.077 38.1018 210.129 38.324C210.182 38.5461 210.186 38.7771 210.142 39.001C210.068 39.4761 209.828 39.9094 209.465 40.2234C209.11 40.5368 208.654 40.7093 208.181 40.7084ZM208.225 40.07C208.531 40.0676 208.824 39.949 209.045 39.7384C209.28 39.5311 209.434 39.247 209.48 38.9367C209.505 38.7997 209.502 38.6587 209.47 38.5231C209.437 38.3875 209.377 38.2603 209.292 38.1498C209.212 38.0422 209.108 37.9558 208.987 37.898C208.867 37.8402 208.734 37.8128 208.601 37.8182C208.298 37.8182 208.007 37.9332 207.786 38.1399C207.552 38.3454 207.399 38.6281 207.356 38.9367C207.327 39.0756 207.329 39.2191 207.36 39.3575C207.392 39.4958 207.453 39.6257 207.539 39.7384C207.618 39.8446 207.722 39.9302 207.842 39.9879C207.961 40.0456 208.093 40.0737 208.225 40.07Z" fill="#908F90"/>
<path d="M212.388 37.2739H215.253L214.759 40.6195H214.068L214.477 37.8728H212.996L212.586 40.6195H211.904L212.388 37.2739Z" fill="#908F90"/>
<path d="M219.911 37.7589L219.985 37.264H220.642L220.148 40.6096H219.496L219.565 40.1146C219.414 40.2886 219.227 40.4285 219.018 40.5249C218.808 40.6213 218.581 40.6721 218.35 40.6739C218.133 40.6939 217.913 40.6591 217.712 40.5727C217.511 40.4863 217.335 40.3509 217.2 40.179C217.071 39.9879 216.981 39.7733 216.935 39.5474C216.89 39.3215 216.889 39.0888 216.933 38.8625C216.991 38.4013 217.218 37.9782 217.57 37.6748C217.911 37.3741 218.351 37.2102 218.805 37.2145C219.02 37.2036 219.235 37.2479 219.428 37.3431C219.622 37.4384 219.788 37.5815 219.911 37.7589ZM218.518 40.0751C218.669 40.0768 218.819 40.0484 218.959 39.9915C219.099 39.9346 219.226 39.8502 219.333 39.7435C219.559 39.5306 219.704 39.2453 219.743 38.9368C219.771 38.801 219.769 38.6607 219.738 38.5256C219.706 38.3906 219.646 38.2641 219.56 38.1548C219.478 38.0441 219.369 37.9555 219.244 37.8968C219.119 37.8381 218.982 37.8111 218.844 37.8183C218.557 37.8165 218.279 37.9204 218.064 38.1103C217.847 38.2978 217.698 38.5518 217.639 38.8328C217.57 39.1301 217.62 39.4428 217.777 39.7039C217.857 39.8261 217.967 39.9249 218.098 39.9901C218.228 40.0553 218.373 40.0847 218.518 40.0751Z" fill="#908F90"/>
<path d="M224.524 37.2093C224.737 37.1996 224.95 37.2392 225.145 37.325C225.34 37.4108 225.513 37.5406 225.65 37.7042C225.79 37.8798 225.892 38.0827 225.949 38.3001C226.006 38.5175 226.017 38.7444 225.981 38.9662C225.931 39.4379 225.718 39.8772 225.379 40.2085C225.218 40.3713 225.025 40.4993 224.813 40.5844C224.6 40.6696 224.373 40.71 224.144 40.7034C223.915 40.708 223.69 40.6523 223.49 40.542C223.289 40.4317 223.122 40.2706 223.003 40.0748L222.731 42H222.05L222.756 37.2737H223.433L223.403 37.7042C223.546 37.5493 223.72 37.4255 223.912 37.3403C224.105 37.2552 224.313 37.2106 224.524 37.2093ZM225.28 38.9613C225.302 38.8239 225.297 38.6834 225.264 38.5482C225.23 38.4129 225.17 38.2858 225.087 38.1744C225.002 38.0654 224.892 37.9785 224.767 37.9208C224.641 37.8631 224.504 37.8364 224.366 37.8428C224.217 37.8391 224.068 37.8663 223.93 37.9224C223.791 37.9786 223.666 38.0627 223.561 38.1694C223.346 38.3777 223.21 38.654 223.176 38.9514C223.13 39.233 223.198 39.5213 223.364 39.7531C223.45 39.8613 223.561 39.9473 223.687 40.004C223.814 40.0608 223.951 40.0868 224.09 40.0798C224.238 40.0836 224.386 40.0575 224.524 40.0031C224.662 39.9487 224.788 39.8671 224.895 39.763C225.117 39.5441 225.254 39.2527 225.28 38.9415V38.9613Z" fill="#908F90"/>
<path d="M230.267 37.2739H231.146L229.413 38.6943L230.682 40.6294H229.823L228.86 39.1447L228.519 39.4169L228.341 40.6195H227.665L228.158 37.2739H228.835L228.638 38.5953L230.267 37.2739Z" fill="#908F90"/>
</svg>
