<svg xmlns="http://www.w3.org/2000/svg" viewBox="0 0 222.35 213.44"><defs><style>.cls-1{fill:#ffa00a;}.cls-2{fill:#fff;}</style></defs><title>12</title><g id="Слой_2" data-name="Слой 2"><g id="Layer_1" data-name="Layer 1"><circle id="_Контур_" data-name="&lt;Контур&gt;" class="cls-1" cx="134.63" cy="125.71" r="83.38"/><circle id="_Контур_2" data-name="&lt;Контур&gt;" class="cls-2" cx="134.63" cy="125.71" r="63.03"/><path id="_Контур_3" data-name="&lt;Контур&gt;" class="cls-1" d="M118.93,25.19H150.2a10.42,10.42,0,0,0,10.42-10.42h0A10.42,10.42,0,0,0,150.2,4.34H118.93A10.42,10.42,0,0,0,108.5,14.77h0A10.42,10.42,0,0,0,118.93,25.19Z"/><path d="M92.22,121.32h-4a4.34,4.34,0,1,0,0,8.69h4a4.34,4.34,0,1,0,0-8.69Zm42.46-33.67A4.34,4.34,0,0,0,139,83.3v-4a4.34,4.34,0,0,0-8.69,0v4A4.34,4.34,0,0,0,134.68,87.65ZM4.34,148.17a4.34,4.34,0,1,0,3.07,7.41,4.34,4.34,0,0,0-3.07-7.41Zm130.23,15.61a4.34,4.34,0,0,0-4.34,4.34v4a4.34,4.34,0,0,0,8.69,0v-4A4.34,4.34,0,0,0,134.58,163.78Zm59,16.55a4.34,4.34,0,1,0,3.07,1.27A4.37,4.37,0,0,0,193.59,180.33ZM221.92,117a87.65,87.65,0,0,0-68.16-76.86v-11A14.77,14.77,0,0,0,150.2,0H118.93a14.77,14.77,0,0,0-3.56,29.09V40.16A87.2,87.2,0,0,0,72.6,63.68a88.14,88.14,0,0,0-7.37,8.37l-.33,0H33.95a4.34,4.34,0,1,0,0,8.69H59.31a87.06,87.06,0,0,0-7.71,16.69H4.34a4.34,4.34,0,1,0,0,8.69H49.15A88.3,88.3,0,0,0,47,122.79H27.79a4.34,4.34,0,1,0,0,8.69H47.14a88.17,88.17,0,0,0,2.71,16.69H21.71a4.34,4.34,0,0,0,0,8.69H52.62A87.71,87.71,0,0,0,126,213q4.3.42,8.61.42a87.94,87.94,0,0,0,47.87-14.15A4.34,4.34,0,0,0,177.7,192,79,79,0,1,1,201,168.7a4.34,4.34,0,1,0,7.28,4.73A88,88,0,0,0,221.92,117ZM145.07,38.65a88.49,88.49,0,0,0-21,0V29.53h21Zm-26.15-17.8a6.08,6.08,0,1,1,0-12.16H150.2a6.08,6.08,0,0,1,0,12.16Zm15.7,37.5A67.37,67.37,0,1,0,202,125.71,67.45,67.45,0,0,0,134.63,58.34Zm0,126.05a58.68,58.68,0,1,1,58.68-58.68A58.75,58.75,0,0,1,134.63,184.4Zm46.43-63h-4a4.34,4.34,0,1,0,0,8.69h4a4.34,4.34,0,0,0,0-8.69Zm-19-29.32-21.51,21.51a13.46,13.46,0,0,0-11.92,0L119,104a4.34,4.34,0,1,0-6.14,6.14l9.63,9.63a13.49,13.49,0,1,0,24.21,0l20.88-20.88.63-.63a4.34,4.34,0,0,0-6.14-6.14Zm-27.47,38.42a4.81,4.81,0,1,1,4.81-4.81A4.81,4.81,0,0,1,134.63,130.52Z"/></g></g></svg>