<svg xmlns="http://www.w3.org/2000/svg" viewBox="0 0 304.17 304.17"><defs><style>.cls-1{fill:#fff;}.cls-2{fill:#ffa00a;}.cls-3{fill:#3685ba;}</style></defs><title>14</title><g id="Слой_2" data-name="Слой 2"><g id="Layer_1" data-name="Layer 1"><path class="cls-1" d="M223.06,207.85h0l-25.35,45.62V212.92a30.42,30.42,0,0,0-30.42-30.42H136.88a15.21,15.21,0,0,1-15.21-15.21V157.16h20.28a30.42,30.42,0,0,0,30.42-30.42V76A71,71,0,1,0,30.42,76v50.7a30.42,30.42,0,0,0,30.42,30.42H81.11v10.14A15.21,15.21,0,0,1,65.9,182.5H35.49A30.42,30.42,0,0,0,5.07,212.92v91.25H212.92l50.7-96.32Z"/><path class="cls-2" d="M278.82,5.07h-65.9a20.28,20.28,0,0,0-20.28,20.28V76a20.28,20.28,0,0,0,20.28,20.28h15.21v25.35l25.35-25.35h25.35A20.28,20.28,0,0,0,299.1,76V25.35A20.28,20.28,0,0,0,278.82,5.07ZM73.63,212.15l29,37L131,211.73H73.63Z"/><path class="cls-3" d="M45.45,304.17H35.31V290.69a50.53,50.53,0,0,1-2.09-57.2l3.71-5.84,8.56,5.43-3.71,5.84a40.39,40.39,0,0,0,2.56,46.87A5.06,5.06,0,0,1,45.45,289v15.21Z"/><path class="cls-3" d="M167.47,304.17H157.33V289a5.06,5.06,0,0,1,1.11-3.17A40.38,40.38,0,0,0,161,238.93l-3.71-5.84,8.56-5.43,3.71,5.84a50.53,50.53,0,0,1-2.09,57.2Z"/><path d="M248.41,65.9H212.92V76h35.49Zm0-40.56H212.92V35.49h35.49Zm30.42,20.28h-65.9V55.77h65.9ZM45.48,233.09l-8.56-5.43-3.71,5.84a50.53,50.53,0,0,0,2.09,57.2v13.48H45.45V289a5.06,5.06,0,0,0-1.11-3.17,40.39,40.39,0,0,1-2.56-46.87Zm167.44-131.7h10.14v20.28a5.07,5.07,0,0,0,3.13,4.68,5.07,5.07,0,0,0,5.53-1.1l23.86-23.86h23.25A25.38,25.38,0,0,0,304.17,76V25.35A25.38,25.38,0,0,0,278.82,0h-65.9a25.38,25.38,0,0,0-25.35,25.35V76A25.38,25.38,0,0,0,212.92,101.39Zm-15.21-76a15.21,15.21,0,0,1,15.21-15.21h65.9A15.21,15.21,0,0,1,294,25.35V76a15.21,15.21,0,0,1-15.21,15.21H253.48a5.06,5.06,0,0,0-3.58,1.49L233.2,109.43V96.32a5.07,5.07,0,0,0-5.07-5.07H212.92A15.21,15.21,0,0,1,197.71,76Zm81.11,0H258.55V35.49h20.28Zm-113,202.31-8.56,5.43,3.71,5.84a40.38,40.38,0,0,1-2.56,46.87,5.06,5.06,0,0,0-1.11,3.17v15.21h10.14V290.69a50.53,50.53,0,0,0,2.09-57.2Zm-105-60.36H65.9V157.16H60.83a25.38,25.38,0,0,1-25.35-25.35V76a65.9,65.9,0,0,1,131.81,0v55.77a25.38,25.38,0,0,1-25.35,25.35h-5.07v10.14h5.07a35.53,35.53,0,0,0,35.49-35.49V76A76,76,0,0,0,25.35,76v55.77A35.53,35.53,0,0,0,60.83,167.29Zm238.27,5.07H253.48a35.49,35.49,0,0,0-35.42,34l-15.28,27.51v-21a35.53,35.53,0,0,0-35.49-35.49H148.77l-.14-.11-.09.11H136.88a10.14,10.14,0,0,1-10.14-10.14V155.37a50.7,50.7,0,0,0,25.35-43.84V71A50.78,50.78,0,0,0,146,46.91a5.07,5.07,0,0,0-6.59-2.18L53.61,85.11A5.08,5.08,0,0,0,50.7,89.7v21.83A50.7,50.7,0,0,0,76,155.37v11.93A10.14,10.14,0,0,1,65.9,177.43H35.49A35.53,35.53,0,0,0,0,212.92v91.25H10.14V212.92a25.38,25.38,0,0,1,25.35-25.35H51.62l45.65,63.79a5.06,5.06,0,0,0,4.06,2.12h.07a5.07,5.07,0,0,0,4.06-2l48.16-63.88H167.3a25.38,25.38,0,0,1,25.35,25.35v40.56a5.07,5.07,0,0,0,9.5,2.46l23.9-43h29.06l-49.43,91.25h11.53l49.45-91.25h2a35.53,35.53,0,0,0,35.49-35.49A5.07,5.07,0,0,0,299.1,172.37ZM60.83,111.53V92.91l78.28-36.84A40.58,40.58,0,0,1,141.95,71v40.56a40.56,40.56,0,1,1-81.11,0ZM101.5,239.85,85.85,218H118Zm24.15-32H78.58L64.06,187.57H65.9a20.28,20.28,0,0,0,20.28-20.28v-7.41a50.63,50.63,0,0,0,30.42,0v7.41a20.28,20.28,0,0,0,20.28,20.28h4.06Zm143-5.07h-40a25.39,25.39,0,0,1,24.84-20.28h40A25.39,25.39,0,0,1,268.69,202.78Z"/></g></g></svg>