<svg xmlns="http://www.w3.org/2000/svg" viewBox="0 0 185 185" id="svg-1"><title id="title-2">phone-call</title><g id="Sloy_2" data-name="Sloy 2"><g id="Sloy_1-2" data-name="Sloy 1"><path d="M96.84,22.07h.36a65.6,65.6,0,0,1,65.73,66.06,7.23,7.23,0,0,0,7.19,7.26h0a7.23,7.23,0,0,0,7.23-7.19A80.05,80.05,0,0,0,97.2,7.62h-.4a7.23,7.23,0,0,0,0,14.45Zm88.15,127a27.37,27.37,0,0,0-8.39-18.8C166.5,120.53,158,114.91,150,112.58c-11.11-3.21-21.4-.29-30.58,8.68l0,0L109.57,131a145.5,145.5,0,0,1-30.8-23.84l-1-1A146.41,146.41,0,0,1,54,75.42l9.7-9.77,0,0c9-9.18,11.89-19.47,8.68-30.58C70.09,27,64.47,18.5,54.74,8.41A27.5,27.5,0,0,0,16.57,7l-.21.19-.28.27C5.47,18.1-.09,32.95,0,50.44c.15,29.71,16.48,63.68,43.68,90.88l.07.07a176.35,176.35,0,0,0,17.26,15,7.23,7.23,0,0,0,8.79-11.47A161.59,161.59,0,0,1,53.9,131.1l-.07-.07C29.3,106.48,14.58,76.33,14.45,50.36c-.07-13.47,4-24.71,11.72-32.52l.06,0a13,13,0,0,1,18.11.65C63,37.85,61.69,47,53.42,55.48L40,69a7.23,7.23,0,0,0-1.47,8c.34.76,8.57,18.94,29.06,39.43l1,.95C89,137.88,107.23,146.11,108,146.45a7.23,7.23,0,0,0,8-1.47l13.49-13.39c8.48-8.27,17.64-9.62,37,9.09a13,13,0,0,1,.65,18.1l-.05.06c-7.75,7.67-18.87,11.72-32.2,11.72h-.33c-10.65-.05-23-3-35.66-8.44a7.23,7.23,0,0,0-5.72,13.27c14.66,6.32,28.56,9.56,41.31,9.62H135c17.31,0,32-5.56,42.54-16.08l.27-.28.19-.21A27.37,27.37,0,0,0,185,149.07ZM133.5,51.51a39.72,39.72,0,0,0-18.77-10.8,7.23,7.23,0,1,0-3.85,13.93,25.28,25.28,0,0,1,12.4,7.09,25.83,25.83,0,0,1,7,12.17l.1.35a7.23,7.23,0,1,0,13.86-4.1l-.1-.33A39.77,39.77,0,0,0,133.5,51.51Z" id="path-5" fill-opacity="1" type="solidColor" fill="#e80000"></path></g></g></svg>