<svg xmlns="http://www.w3.org/2000/svg" viewBox="0 0 169.76 212" id="svg-1"><title id="title-2">pin</title><g id="Sloy_2" data-name="Sloy 2"><g id="Sloy_1-2" data-name="Sloy 1"><path d="M84.88 33.13A51.76 51.76.0 1 0 99.08 134.67a8.28 8.28.0 1 0-4.53-15.93A35.15 35.15.0 1 1 118.6 95a8.28 8.28.0 1 0 15.86 4.76A51.79 51.79.0 0 0 84.88 33.13zm60-8.3A84.88 84.88.0 0 0 0 84.8c0 16.5 4.6 32 14 47.33C22.16 145.42 32.75 157 44 169.3c11 12 22.36 24.48 31.43 38.85a8.28 8.28.0 0 0 7 3.86h5a8.28 8.28.0 0 0 7-3.86c9.08-14.36 20.44-26.81 31.43-38.85C137 157 147.6 145.42 155.75 132.13c9.41-15.35 14-30.83 14-47.35A84.33 84.33.0 0 0 144.87 24.83zm-31.3 133.3c-9.77 10.7-19.83 21.72-28.69 34.38C76 179.85 66 168.83 56.19 158.13c-21.25-23.27-39.6-43.37-39.63-73.33a68.32 68.32.0 0 1 136.64.0C153.17 114.76 134.82 134.86 113.57 158.13z" id="path-5" fill-opacity="1" type="solidColor" fill="#fd1606"/></g></g></svg>