<?xml version="1.0" encoding="UTF-8"?> <svg xmlns="http://www.w3.org/2000/svg" width="30" height="30" viewBox="0 0 30 30" fill="none"> <path fill-rule="evenodd" clip-rule="evenodd" d="M15 6.89388e-05C18.9721 -0.0120285 22.787 1.56845 25.6084 4.39509C26.9994 5.7801 28.1039 7.43089 28.8579 9.25153C29.6118 11.0722 30.0001 13.0263 30.0001 15.0001C30.0001 16.9738 29.6118 18.928 28.8579 20.7486C28.1039 22.5692 26.9994 24.22 25.6084 25.605C22.7803 28.4214 18.9698 30.0001 15 30.0001C11.0303 30.0001 7.22004 28.4214 4.39187 25.605C3.00094 24.22 1.89618 22.5692 1.14222 20.7486C0.388258 18.928 0 16.9738 0 15.0001C0 13.0263 0.388258 11.0722 1.14222 9.25153C1.89618 7.43089 3.00094 5.7801 4.39187 4.39509C7.21502 1.57105 11.0286 -0.00897011 15 6.89388e-05ZM24.7826 5.22517C22.1762 2.62683 18.6628 1.16999 15.0025 1.16999C11.3421 1.16999 7.8289 2.62683 5.22258 5.22517C3.93972 6.50237 2.92091 8.02466 2.22552 9.70368C1.53013 11.3827 1.17216 13.1847 1.17216 15.005C1.17216 16.8252 1.53013 18.6274 2.22552 20.3065C2.92091 21.9855 3.93972 23.5078 5.22258 24.785C7.832 27.3773 11.344 28.8299 15.0025 28.8299C18.6609 28.8299 22.1731 27.3773 24.7826 24.785C26.064 23.507 27.0813 21.9844 27.7758 20.3055C28.4702 18.6266 28.8279 16.8248 28.8279 15.005C28.8279 13.1851 28.4702 11.3836 27.7758 9.70466C27.0813 8.02575 26.064 6.50319 24.7826 5.22517Z" fill="white"></path> <path d="M18.964 7H11.0362C8.81049 7 7 8.81074 7 11.0362V18.964C7 21.1898 8.81049 23 11.0362 23H18.964C21.1898 23 23 21.1898 23 18.964V11.0362C23 8.81074 21.1898 7 18.964 7ZM21.259 18.964C21.259 20.2296 20.2293 21.2592 18.964 21.2592H11.0362C9.77093 21.2592 8.74129 20.2296 8.74129 18.964V11.0362C8.74129 9.77093 9.77093 8.74154 11.0362 8.74154H18.964C20.2293 8.74154 21.259 9.77093 21.259 11.0362V18.964Z" fill="white"></path> <path d="M19.2541 11.7313C18.7164 11.7313 18.2788 11.294 18.2788 10.7562C18.2788 10.2187 18.7164 9.78139 19.2541 9.78139C19.7919 9.78139 20.2292 10.2187 20.2292 10.7562C20.2292 11.294 19.7919 11.7313 19.2541 11.7313Z" fill="white"></path> <path d="M14.9992 10.8786C12.7274 10.8786 10.8787 12.7271 10.8787 14.9992C10.8787 17.2713 12.7274 19.12 14.9992 19.12C17.2716 19.12 19.1203 17.2713 19.1203 14.9992C19.1203 12.7273 17.2716 10.8786 14.9992 10.8786ZM14.9992 17.3792C13.6878 17.3792 12.6197 16.3113 12.6197 14.9992C12.6197 13.6875 13.6878 12.6202 14.9992 12.6202C16.3114 12.6202 17.3787 13.6875 17.3787 14.9992C17.3787 16.3113 16.3114 17.3792 14.9992 17.3792Z" fill="white"></path> </svg> 