<?xml version="1.0" encoding="UTF-8"?> <svg xmlns="http://www.w3.org/2000/svg" width="31" height="30" viewBox="0 0 31 30" fill="none"> <path fill-rule="evenodd" clip-rule="evenodd" d="M15.0048 5.87869e-05C18.9767 -0.0111088 22.7912 1.56923 25.6132 4.39508C27.0041 5.78009 28.1087 7.43088 28.8626 9.25152C29.6166 11.0722 30.0048 13.0263 30.0048 15.0001C30.0048 16.9738 29.6166 18.928 28.8626 20.7486C28.1087 22.5692 27.0041 24.22 25.6132 25.605C22.786 28.4213 18.9763 30.0001 15.0073 30.0001C11.0384 30.0001 7.22867 28.4213 4.40147 25.605C3.00914 24.2208 1.90339 22.5703 1.14855 20.7496C0.393714 18.9288 0.00488281 16.9743 0.00488281 15.0001C0.00488281 13.0258 0.393714 11.0713 1.14855 9.25055C1.90339 7.4298 3.00914 5.7793 4.40147 4.39508C7.22151 1.56939 11.0344 -0.0110425 15.0048 5.87869e-05ZM24.7922 5.22516C22.1858 2.62681 18.6726 1.16998 15.0123 1.16998C11.3519 1.16998 7.83862 2.62681 5.23229 5.22516C3.94805 6.50156 2.92812 8.02357 2.23185 9.7027C1.53559 11.3818 1.17693 13.1842 1.17693 15.0049C1.17693 16.8256 1.53559 18.6283 2.23185 20.3074C2.92812 21.9866 3.94805 23.5086 5.23229 24.785C7.84172 27.3773 11.3539 28.8299 15.0123 28.8299C18.6707 28.8299 22.1827 27.3773 24.7922 24.785C26.0736 23.5069 27.0911 21.9844 27.7856 20.3055C28.4801 18.6266 28.8376 16.8247 28.8376 15.0049C28.8376 13.1851 28.4801 11.3836 27.7856 9.70465C27.0911 8.02574 26.0736 6.50318 24.7922 5.22516V5.22516ZM16.1522 11.9351V10.7051C16.1399 10.6106 16.1484 10.5145 16.1771 10.4236C16.2058 10.3328 16.254 10.2495 16.3182 10.1797C16.3825 10.11 16.4613 10.0555 16.5488 10.0201C16.6364 9.9847 16.7307 9.96939 16.8249 9.97516H18.5459V7.35016H16.177C13.5459 7.35016 12.9524 9.29499 12.9524 10.555V11.9351H11.4242V15.0001H12.9722V22.66H16.0385V15.0001H18.3036L18.4025 13.795L18.5854 11.9351H16.1522V11.9351Z" fill="white"></path> </svg> 