<?xml version="1.0" encoding="UTF-8"?> <svg xmlns="http://www.w3.org/2000/svg" width="31" height="30" viewBox="0 0 31 30" fill="none"> <path fill-rule="evenodd" clip-rule="evenodd" d="M15.0024 3.85705e-05C18.9745 -0.00900048 22.7888 1.57102 25.6124 4.39506C27.0036 5.78007 28.1084 7.43086 28.8625 9.2515C29.6166 11.0721 30.0049 13.0263 30.0049 15C30.0049 16.9738 29.6166 18.9279 28.8625 20.7486C28.1084 22.5692 27.0036 24.22 25.6124 25.605C22.7848 28.4213 18.9746 30 15.0049 30C11.0353 30 7.22498 28.4213 4.39731 25.605C3.00476 24.2208 1.8987 22.5703 1.14374 20.7495C0.388775 18.9288 0 16.9743 0 15C0 13.0258 0.388775 11.0713 1.14374 9.25053C1.8987 7.42978 3.00476 5.77928 4.39731 4.39506C7.21909 1.57132 11.0318 -0.00876885 15.0024 3.85705e-05V3.85705e-05ZM24.7815 5.22514C22.1757 2.62687 18.6626 1.16996 15.0024 1.16996C11.3422 1.16996 7.82911 2.62687 5.22332 5.22514C3.94025 6.50233 2.92127 8.02463 2.22577 9.70365C1.53026 11.3827 1.17212 13.1847 1.17212 15.0049C1.17212 16.8252 1.53026 18.6274 2.22577 20.3064C2.92127 21.9855 3.94025 23.5077 5.22332 24.7849C7.83209 27.3775 11.344 28.8304 15.0024 28.8304C18.6608 28.8304 22.1727 27.3775 24.7815 24.7849C26.0645 23.5077 27.0835 21.9855 27.779 20.3064C28.4745 18.6274 28.8327 16.8252 28.8327 15.0049C28.8327 13.1847 28.4745 11.3827 27.779 9.70365C27.0835 8.02463 26.0645 6.50233 24.7815 5.22514V5.22514ZM23.3025 10.8201C23.0799 10.6551 22.2737 10.6551 21.4723 10.6551C20.8657 10.6346 20.2583 10.6664 19.6569 10.75C19.4789 10.815 19.0881 11.76 18.5836 12.73C17.9999 13.83 17.2975 14.89 16.8474 14.875C16.2588 14.875 16.3972 13.0701 16.4418 11.7351C16.4467 10.8651 16.3082 10.5799 16.1845 10.5049C15.8173 10.3172 15.4286 10.1762 15.0271 10.085C15.0271 10.085 12.4846 9.89003 12.1285 10.99C12.6182 11.055 13.4492 10.9051 13.1277 14.3001C13.1029 14.4701 12.7369 15.865 11.5548 13.98C11.258 13.505 10.1253 10.6701 9.72956 10.6551C8.4237 10.6301 7.12766 10.5751 6.67754 10.8201C6.25709 11.0701 7.24639 13.015 8.91333 15.625C10.2686 17.765 11.7032 19.4251 14.1962 19.8401C14.8883 19.9302 15.5903 19.9031 16.2737 19.76C16.5309 19.635 16.2093 17.79 17.0947 17.605C17.4855 17.535 19.009 19.535 19.5778 19.76C20.1956 19.9227 20.8362 19.9785 21.4723 19.9251C22.3231 19.9001 23.2827 20.0101 23.3766 19.4251C23.5844 18.1551 20.8095 16.4951 20.7353 15.7151C20.671 15.1501 21.7493 14.11 22.2984 13.315C22.976 12.35 23.7279 11.1901 23.3025 10.8201V10.8201Z" fill="white"></path> </svg> 