<svg xmlns="http://www.w3.org/2000/svg" viewBox="0 0 184.77 122.32" id="svg-1"><defs id="defs-2"></defs><title id="title-3">Teh</title><g id="Sloy_2" data-name="Sloy 2"><g id="Sloy_1-2" data-name="Sloy 1"><path class="cls-1" d="M24,5.56a16.1,16.1,0,0,0-3.46.36,18,18,0,0,0-10.39,6.21,2.75,2.75,0,0,0,2.2,4.43h7.62a8.55,8.55,0,0,1,8.69,7.64,8.25,8.25,0,0,1-8.22,8.85H12.48a3.07,3.07,0,0,0-1,.19,2.81,2.81,0,0,0-1,4.45,18.26,18.26,0,0,0,11.3,6,20.18,20.18,0,0,0,2.23.14,18.76,18.76,0,0,0,14.39-7.17H48l5.43-7.17,4.26-17.29H37.94A18.73,18.73,0,0,0,24,5.56ZM181.51,33.63H172.7a9.17,9.17,0,0,1-9.14-9.85,9.51,9.51,0,0,1,9.66-8.5h8.47a3.06,3.06,0,0,0,2.45-4.92,20.08,20.08,0,0,0-15.41-7.31,18.84,18.84,0,0,0-4.59.55A21.46,21.46,0,0,0,151,13.92H130.69l0,21.14h20.46a21.46,21.46,0,0,0,13,10,18.84,18.84,0,0,0,4.59.55,20.16,20.16,0,0,0,15-6.85,3.09,3.09,0,0,0-2.26-5.17Z" fill="#ffa00a" fill-opacity="1" id="path-6" type="solidColor"></path><path d="M83.59,116.43a3.12,3.12,0,0,0-3.33.64,3.16,3.16,0,0,0-.64,1,3.05,3.05,0,0,0,5,3.33L85,121a2.32,2.32,0,0,0,.28-.55,2,2,0,0,0,.18-.55,4.6,4.6,0,0,0,.06-.61,3.22,3.22,0,0,0-.89-2.17A3.16,3.16,0,0,0,83.59,116.43Zm93.26-85.86H168a6.06,6.06,0,0,1-4.32-1.79A6.13,6.13,0,0,1,161.94,24a6.51,6.51,0,0,1,6.62-5.66H177a6.12,6.12,0,0,0,5.58-3.57,5.92,5.92,0,0,0-.79-6.36,23,23,0,0,0-36.14.76H134a12.13,12.13,0,0,0-21-4.95,12.07,12.07,0,0,0-18.35,0,12.07,12.07,0,0,0-18.35,0,12.13,12.13,0,0,0-21,4.95H37.52A23,23,0,0,0,1.38,8.42a5.92,5.92,0,0,0-.79,6.36,6.12,6.12,0,0,0,5.58,3.57h8.48A6.51,6.51,0,0,1,21.28,24a6.13,6.13,0,0,1-1.78,4.77,6.06,6.06,0,0,1-4.34,1.79H6.35A6,6,0,0,0,.79,34.15a6.14,6.14,0,0,0,1,6.66,23,23,0,0,0,35.55-1.06h5.09L38.32,50.07a12.35,12.35,0,0,0,.55,10.26L57.33,90A6.14,6.14,0,0,1,58,92.77v23.41a6.12,6.12,0,0,0,6.12,6.12H70.2a3.06,3.06,0,0,0,0-6.12H64.09V92.77a12.44,12.44,0,0,0-1.43-5.71L44.21,57.35a6.12,6.12,0,0,1-.21-5l7.63-19.06a9.13,9.13,0,0,1,8.52-5.77H88.4a3.1,3.1,0,0,1,2.37,1.1A2.93,2.93,0,0,1,91.44,31c-1.33,7.82-6.41,11.8-15.12,11.8H67.14a3.06,3.06,0,0,0-1.08,5.92c.23.09,22.48,8.73,22.48,27.71a3.06,3.06,0,1,0,6.12,0c0-13.45-8.48-22.38-15.83-27.61a19,19,0,0,0,15.2-8,12.1,12.1,0,0,0,19,.77,12,12,0,0,0,15.29,2.53V55c0,.94,0,1.88-.1,2.81a39.56,39.56,0,0,1-8.07,20.59L108.59,94a3.33,3.33,0,0,0-.24.37,12.24,12.24,0,0,0-1.46,5.81v16H94.66a3.06,3.06,0,0,0,0,6.12h12.23a6.12,6.12,0,0,0,6.12-6.12v-16a6.14,6.14,0,0,1,.64-2.72L125,82.08a45.62,45.62,0,0,0,9.26-23.8c.08-1.08.12-2.16.12-3.24V39.75h11.44a23,23,0,0,0,35.54,1.06,6.14,6.14,0,0,0,1-6.66A6,6,0,0,0,176.85,30.58Zm-157.71,12A17.05,17.05,0,0,1,6.4,36.76l-2.29,2,2.24-2.1h8.81a12.23,12.23,0,0,0,12.2-13.12A12.56,12.56,0,0,0,14.65,12.23l-8.56.1A17,17,0,0,1,19.14,6.12,17.86,17.86,0,0,1,36.57,24.34,17.87,17.87,0,0,1,19.14,42.59ZM54.91,22.35a15.19,15.19,0,0,0-9,8.66l-1,2.62h-4A25,25,0,0,0,41,15.29H54.91Zm18.35-.95H61V12.23a6.12,6.12,0,1,1,12.23,0ZM91.6,22a9.23,9.23,0,0,0-3.2-.61h-9V12.23a6.12,6.12,0,1,1,12.23,0Zm18.35,11.62a6.12,6.12,0,1,1-12.23,0V12.23a6.12,6.12,0,1,1,12.23,0Zm18.35,0a6.12,6.12,0,1,1-12.23,0V12.23a6.12,6.12,0,1,1,12.23,0Zm6.12,0V15.29h7.82a25,25,0,0,0,.08,18.35Zm29.66,9a17.87,17.87,0,0,1-17.43-18.25A17.86,17.86,0,0,1,164.07,6.12a17,17,0,0,1,13,6.12h-8.5a12.56,12.56,0,0,0-12.72,11.34A12.25,12.25,0,0,0,168,36.69l8.77.07A17.06,17.06,0,0,1,164.07,42.59Z" id="path-7"></path></g></g></svg>