<svg xmlns="http://www.w3.org/2000/svg" viewBox="0 0 114.66 146.55" id="svg-1"><defs id="defs-2"></defs><title id="title-3">Udobstvo</title><g id="Sloy_2" data-name="Sloy 2"><g id="Sloy_1-2" data-name="Sloy 1"><path class="cls-1" d="M32.5,49.17l7.57-3.35a4.91,4.91,0,0,0,2.49-6.45l-2.25-5.08a7.29,7.29,0,0,1-.4-1.17,7.61,7.61,0,0,1,.37-2.2A15.66,15.66,0,0,0,38.78,18,15.85,15.85,0,0,0,22.71,10.6a14.74,14.74,0,0,0-2,.49,15.74,15.74,0,0,0-2,29.33,7.89,7.89,0,0,1,1.44.85L17,42.64a7.41,7.41,0,0,1,1,1.69l2.17,4.93A4.85,4.85,0,0,0,23.9,52.1a4.93,4.93,0,0,0,2.76-.34l1-.44L50.1,102.47l.24.18,4.8-2.21Z" fill="#ffa00a" fill-opacity="1" id="path-6" type="solidColor"></path><path d="M112.34,131.21a11.48,11.48,0,0,0-6.78-4.64,15.84,15.84,0,0,0-5.78.14,11.67,11.67,0,0,0-2.17-8.64A10.63,10.63,0,0,0,87,113.83a9.55,9.55,0,0,0,.15-1.3,10.19,10.19,0,0,0-3-7.44,9.53,9.53,0,0,0-8.34-2.44,5.06,5.06,0,0,0-.14-.52l-2-4.45A7.34,7.34,0,0,0,64.07,94l-21-47.3a7.24,7.24,0,0,0,1.68-8.27l-2.24-5.07a6.52,6.52,0,0,1-.11-4.64A22,22,0,0,0,15,1,22.36,22.36,0,0,0,5.75,6.65a2.34,2.34,0,0,0,.15,3.55,2.62,2.62,0,0,0,3.35-.14,17.47,17.47,0,0,1,7.22-4.43,17.14,17.14,0,0,1,19.66,7.53,16.94,16.94,0,0,1,1.63,14A12.24,12.24,0,0,0,37.19,31L17.61,39.72a12.74,12.74,0,0,0-3.32-2.23,17,17,0,0,1-8.44-8.58l-.39-1a14,14,0,0,1-.62-2A2.61,2.61,0,0,0,2,24a2.34,2.34,0,0,0-2,3,18.52,18.52,0,0,0,.8,2.63l.5,1.32a21.91,21.91,0,0,0,10.86,11,7,7,0,0,1,3.55,3.4L18,50.25a7.33,7.33,0,0,0,6.7,4.36c.18,0,.37,0,.55-.06l21,47.35a7.68,7.68,0,0,0-3.89,4.15,8.13,8.13,0,0,0,0,5.21,14.2,14.2,0,0,0,1,2.32,7.38,7.38,0,0,0-1.11,1.68,7.73,7.73,0,0,0,.79,8.2c.09.11.2.19.29.3A7.58,7.58,0,0,0,40,130.46a9.28,9.28,0,0,0,1.53,4.64,6.89,6.89,0,0,0-.83,1,6.79,6.79,0,0,0,5.74,10.42h61.44c4,0,6.5-4.23,6.71-7.28A12.58,12.58,0,0,0,112.34,131.21ZM72.71,108.43c3.62-1.11,6.14-1.69,8.09.19h0a5.23,5.23,0,0,1,1.51,3.83,4.4,4.4,0,0,1-1,2.65l-31.21,6.56a3.29,3.29,0,0,1-3.28-1.17,2.85,2.85,0,0,1-.24-3.11c.5-1.06,1.28-1.37,3.45-2Zm-6.65-10a2.44,2.44,0,0,1,3.22,1.25h0l1.82,4.15-22.51,6.86-1.07.34a8.82,8.82,0,0,1-.51-1.2,3.42,3.42,0,0,1-.08-2.1c.36-1,1.41-1.49,3.1-2.23l.33-.15h.06l13.25-5.86ZM23.8,49.56a2.44,2.44,0,0,1-1.35-1.29l-2-4.47,17.86-7.92,2,4.47a2.44,2.44,0,0,1-1.24,3.22l-13.4,5.94A2.42,2.42,0,0,1,23.8,49.56ZM29.88,53l4.47-2,4.47-2,20.78,46.9-8.93,4Zm17.49,74.23,3.74-.78,32-6.74c.66-.14,1.32-.3,2-.47l.69-.17c3.9-1,6.17-.42,7.87,1.9h0a6.48,6.48,0,0,1,.86,6.46L46.31,133a.44.44,0,0,1-.31-.12,3.92,3.92,0,0,1-1.07-2.54A2.82,2.82,0,0,1,47.38,127.23Zm60.55,14.44H46.48a1.91,1.91,0,0,1-.22-3.8l51.57-5.93c.73-.08,1.45-.2,2.18-.32a13.19,13.19,0,0,1,4.59-.26h0a6.6,6.6,0,0,1,3.76,2.69,7.72,7.72,0,0,1,1.39,4.87C109.68,140.13,108.65,141.67,107.92,141.67ZM1.29,18.78a2.25,2.25,0,0,0,.89.34A2.87,2.87,0,0,0,4,18.74a2.69,2.69,0,0,0,1-1.35,2.74,2.74,0,0,0-.19-1.69l-.24-.39A2.12,2.12,0,0,0,4.27,15a1.69,1.69,0,0,0-.36-.31,4,4,0,0,0-.43-.24,2.31,2.31,0,0,0-1.88,0,2.59,2.59,0,0,0-1,3.63A2.31,2.31,0,0,0,1.29,18.78Zm16.49-3.29a2.44,2.44,0,0,0-.49-4.86,12,12,0,0,0-4.82,1.69,9.44,9.44,0,0,0-4.33,9.39,2.44,2.44,0,0,0,2.43,2.21h.24A2.44,2.44,0,0,0,13,21.25a5,5,0,0,1,4.77-5.76Z" id="path-7"></path></g></g></svg>