<svg xmlns="http://www.w3.org/2000/svg" viewBox="0 0 136.53 136.53" id="svg-1"><defs id="defs-2"></defs><title id="title-3">Strhovka</title><g id="Sloy_2" data-name="Sloy 2"><g id="Sloy_1-2" data-name="Sloy 1"><g id="Page-1"><g id="_003---Car-Insurance" data-name="003---Car-Insurance"><path class="cls-1" d="M6,15.4V33.92a11.8,11.8,0,0,0,4.85,9.55L23,52.29a1,1,0,0,0,1.14,0l12.12-8.82a11.8,11.8,0,0,0,4.85-9.55V15.41L23.56,7.66ZM89.76,56.63l-10.49,6a1.14,1.14,0,0,1-1.7-1.09l1.7-18.68a1.14,1.14,0,0,0-2.06-.76l-8,11.22a1.14,1.14,0,0,1-1.85,0l-8-11.22a1.14,1.14,0,0,0-2,.76L59,61.54a1.14,1.14,0,0,1-1.7,1.09l-10.49-6a1.14,1.14,0,0,0-1.56,1.54l8.1,14.58a4.55,4.55,0,0,0,4,2.34H79.24a4.55,4.55,0,0,0,4-2.34l8.1-14.58a1.14,1.14,0,0,0-1.56-1.54ZM119,61.44a1.16,1.16,0,0,0-1,.64L107.77,82.56a1.14,1.14,0,0,0,1,1.64h25.46V61.44Z" fill="#ffa00a" fill-opacity="1" id="path-8" type="solidColor"></path><path d="M1.41,97.67a1.45,1.45,0,0,0,.41.14,3.41,3.41,0,0,0,.46,0,2.39,2.39,0,0,0,1.62-.66,2.35,2.35,0,0,0,.48-.75A2.32,2.32,0,0,0,3.89,94a2.35,2.35,0,0,0-.75-.48,2.28,2.28,0,0,0-.86-.18A2.39,2.39,0,0,0,.66,94a2.31,2.31,0,0,0,0,3.23l.34.27A1.72,1.72,0,0,0,1.41,97.67ZM59.16,81.92H45.87a2.26,2.26,0,0,1-2-1.14L28.38,53.61l10.55-7.68a16.11,16.11,0,0,0,6.6-13V11.32a2.28,2.28,0,0,0-1.37-2.08L23.68.19a2.28,2.28,0,0,0-1.84,0l-20.48,9A2.28,2.28,0,0,0,0,11.33V32.95a16.11,16.11,0,0,0,6.6,13l5.67,4.13H4.55A4.55,4.55,0,0,0,0,54.61V86.47a2.28,2.28,0,0,0,4.55,0h25a2.28,2.28,0,0,0,2-3.29L20.24,60.42a2.28,2.28,0,0,0-2-1.26H4.55V54.61h14l2.23,1.62a3.38,3.38,0,0,0,3.92.05L39.94,83a6.84,6.84,0,0,0,5.93,3.45h4.19V91a4.55,4.55,0,0,0,4.55,4.55h4.55v13.65a4.55,4.55,0,0,1-4.55,4.55h-12a18.18,18.18,0,0,0-35.22,0H4.55v-9.1a2.28,2.28,0,0,0-4.55,0v9.1a4.55,4.55,0,0,0,4.55,4.55H6.83a18.2,18.2,0,0,0,36.41,0H54.61a9.1,9.1,0,0,0,9.1-9.1V86.47A4.55,4.55,0,0,0,59.16,81.92ZM16.8,63.72l9.1,18.2H4.55V63.72Zm6-11.65-2.12-1.54-.14-.1L9.27,42.26a11.55,11.55,0,0,1-4.72-9.31V12.8l18.2-8,18.2,8V32.95a11.55,11.55,0,0,1-4.72,9.31ZM25,132a13.56,13.56,0,0,1-13.52-15.46v0A13.65,13.65,0,1,1,25,132ZM59.16,91H54.61V86.47h4.55ZM25,109.23a9.1,9.1,0,1,0,9.1,9.1A9.1,9.1,0,0,0,25,109.23Zm0,13.65a4.55,4.55,0,1,1,4.55-4.55A4.55,4.55,0,0,1,25,122.88ZM132,50.06H114.14a6.84,6.84,0,0,0-5.93,3.45L92.63,80.78a2.28,2.28,0,0,1-2,1.14H77.37a4.55,4.55,0,0,0-4.55,4.55v22.76a9.1,9.1,0,0,0,9.1,9.1H93.3a18.2,18.2,0,0,0,36.41,0H132a4.55,4.55,0,0,0,4.55-4.55V54.61A4.55,4.55,0,0,0,132,50.06ZM77.37,86.47h4.55V91H77.37ZM111.5,132A13.56,13.56,0,0,1,98,116.52v0A13.65,13.65,0,1,1,111.5,132ZM132,81.92H110.63l9.1-18.2H132Zm0-22.76H118.33a2.28,2.28,0,0,0-2,1.26L104.9,83.18a2.28,2.28,0,0,0,2,3.29h25v27.31h-2.87a18.18,18.18,0,0,0-35.22,0h-12a4.55,4.55,0,0,1-4.55-4.55V95.57h4.55A4.55,4.55,0,0,0,86.47,91V86.47h4.18A6.84,6.84,0,0,0,96.58,83l15.58-27.28a2.28,2.28,0,0,1,2-1.14H132ZM111.5,109.23a9.1,9.1,0,1,0,9.1,9.1A9.1,9.1,0,0,0,111.5,109.23Zm0,13.65a4.55,4.55,0,1,1,4.55-4.55A4.55,4.55,0,0,1,111.5,122.88Zm-55-63.31L44.36,52.64a2.28,2.28,0,0,0-3.12,3.08L52.62,76.2a2.28,2.28,0,0,0,4-2.21L49.19,60.63,58,65.69a2.28,2.28,0,0,0,3.4-2.18L59.91,46.83l6.5,9.1.05.06a2,2,0,0,0,.7.59l.22.12a2.26,2.26,0,0,0,.31.1l.26.06.09,0a2.21,2.21,0,0,0,.25,0h.19l.07,0a2.24,2.24,0,0,0,.34-.08l.23-.07a2.24,2.24,0,0,0,.29-.16l.22-.13a2.27,2.27,0,0,0,.23-.22A2.23,2.23,0,0,0,70,56l.06-.06,6.5-9.1L75.09,63.51a2.28,2.28,0,0,0,3.41,2.18l8.85-5.06L79.93,74a2.27,2.27,0,1,0,4,2.21L95.28,55.72a2.28,2.28,0,0,0-3.12-3.08L80,59.57l1.88-20.68a2.28,2.28,0,0,0-4.14-1.52L68.26,50.7,58.73,37.36a2.28,2.28,0,0,0-4.12,1.53ZM74.85,71.8a2.28,2.28,0,0,0-3.05-1l-1.26.63V68.27a2.28,2.28,0,1,0-4.55,0v3.15l-1.26-.63a2.28,2.28,0,1,0-2,4.07l4.55,2.28.11,0,.11,0a2.08,2.08,0,0,0,1.23.1l.21-.06.2-.07.17-.06,4.55-2.28A2.28,2.28,0,0,0,74.85,71.8ZM35.52,16.41a2.28,2.28,0,0,0-3.19.4L18,35.26l-5-5a2.28,2.28,0,0,0-3.22,3.22l6.83,6.83A2.28,2.28,0,0,0,18.2,41h.14A2.28,2.28,0,0,0,20,40.08L35.92,19.6A2.28,2.28,0,0,0,35.52,16.41Z" id="path-9"></path></g></g></g></g></svg>