<svg xmlns="http://www.w3.org/2000/svg" viewBox="0 0 69.94 69.89" id="svg-1"><title id="title-2">X</title><g id="Sloy_2" data-name="Sloy 2"><g id="Layer_1" data-name="Layer 1"><path d="M67.28,56.65l-21.6-21.6L67.5,13.24a7.22,7.22,0,0,0,0-10.83,7.22,7.22,0,0,0-10.8,0L34.89,24.25,13.24,2.61a7.22,7.22,0,0,0-10.83,0,7.22,7.22,0,0,0,0,10.8L24.09,35.05,2.66,56.49a7.22,7.22,0,0,0,0,10.83,7.22,7.22,0,0,0,10.8,0L34.89,45.85l21.6,21.6a7.65,7.65,0,1,0,10.8-10.8Z" id="path-5" fill-opacity="1" type="solidColor" fill="#f90206"></path></g></g></svg>